<svg enable-background="new 0 0 900 600" viewBox="0 0 900 600" xmlns="http://www.w3.org/2000/svg" xmlns:xlink="http://www.w3.org/1999/xlink"><linearGradient id="a"><stop offset="0" stop-color="#a1c3fc"/><stop offset=".6955" stop-color="#81aef2"/><stop offset="1" stop-color="#78a9ef"/></linearGradient><linearGradient id="b" gradientTransform="matrix(1 0 0 -1 0 602)" gradientUnits="userSpaceOnUse" x1="685.982" x2="684.8497" xlink:href="#a" y1="320.5876" y2="350.5947"/><linearGradient id="c" gradientTransform="matrix(1 0 0 -1 0 602)" gradientUnits="userSpaceOnUse" x1="680.9709" x2="576.5676" xlink:href="#a" y1="441.8309" y2="525.4069"/><linearGradient id="d" gradientTransform="matrix(1 0 0 -1 0 602)" gradientUnits="userSpaceOnUse" x1="690.4478" x2="713.9439" xlink:href="#a" y1="355.9234" y2="437.7353"/><linearGradient id="e"><stop offset=".08983001" stop-color="#eee"/><stop offset=".8178" stop-color="#d6d7d8"/></linearGradient><linearGradient id="f" gradientTransform="matrix(1 0 0 -1 0 602)" gradientUnits="userSpaceOnUse" x1="581.1442" x2="585.6458" xlink:href="#e" y1="461.3409" y2="519.8616"/><linearGradient id="g" gradientTransform="matrix(1 0 0 -1 0 602)" gradientUnits="userSpaceOnUse" x1="366.8879" x2="348.3636" xlink:href="#e" y1="99.501" y2="73.2387"/><linearGradient id="h"><stop offset=".1291" stop-color="#428dfc"/><stop offset=".9987" stop-color="#1d72d8"/></linearGradient><linearGradient id="i" gradientTransform="matrix(1 0 0 -1 0 602)" gradientUnits="userSpaceOnUse" x1="407.6139" x2="406.9686" xlink:href="#h" y1="353.0958" y2="306.6364"/><linearGradient id="j" gradientTransform="matrix(1 0 0 -1 0 602)" gradientUnits="userSpaceOnUse" x1="236.4942" x2="233.7048" xlink:href="#h" y1="327.244" y2="305.9054"/><linearGradient id="k"><stop offset=".14" stop-color="#e94a47"/><stop offset="1" stop-color="#c63030"/></linearGradient><linearGradient id="l" gradientTransform="matrix(1 0 0 -1 0 602)" gradientUnits="userSpaceOnUse" x1="411.1169" x2="336.6707" xlink:href="#k" y1="237.6446" y2="229.6682"/><linearGradient id="m"><stop offset="0" stop-color="#23286b"/><stop offset="1" stop-color="#151a4f"/></linearGradient><linearGradient id="n" gradientTransform="matrix(1 0 0 -1 0 602)" gradientUnits="userSpaceOnUse" x1="332.4684" x2="335.0151" xlink:href="#m" y1="202.7311" y2="229.048"/><linearGradient id="o" gradientTransform="matrix(1 0 0 -1 0 602)" gradientUnits="userSpaceOnUse" x1="291.9886" x2="342.0756" xlink:href="#m" y1="221.321" y2="193.0941"/><linearGradient id="p" gradientTransform="matrix(1 0 0 -1 0 602)" gradientUnits="userSpaceOnUse" x1="334.1662" x2="332.0782" xlink:href="#m" y1="160.9164" y2="89.0873"/><linearGradient id="q" gradientTransform="matrix(1 0 0 -1 0 602)" gradientUnits="userSpaceOnUse" x1="365.8358" x2="330.9653" xlink:href="#m" y1="111.6415" y2="121.8729"/><linearGradient id="r" gradientTransform="matrix(1 0 0 -1 0 602)" gradientUnits="userSpaceOnUse" x1="273.8864" x2="301.8663" xlink:href="#m" y1="137.9773" y2="112.7119"/><linearGradient id="s" gradientTransform="matrix(1 0 0 -1 0 602)" gradientUnits="userSpaceOnUse" x1="312.5071" x2="280.1482" xlink:href="#e" y1="97.3393" y2="71.3115"/><linearGradient id="t" gradientTransform="matrix(1 0 0 -1 0 602)" gradientUnits="userSpaceOnUse" x1="396.9189" x2="372.0635" xlink:href="#e" y1="101.1705" y2="74.6736"/><linearGradient id="u" gradientTransform="matrix(1 0 0 -1 0 602)" gradientUnits="userSpaceOnUse" x1="324.0284" x2="394.8443" xlink:href="#h" y1="120.3115" y2="92.9593"/><linearGradient id="v" gradientTransform="matrix(1 0 0 -1 0 602)" gradientUnits="userSpaceOnUse" x1="256.9962" x2="417.4368" xlink:href="#m" y1="190.2112" y2="208.8788"/><linearGradient id="w" gradientTransform="matrix(1 0 0 -1 0 602)" gradientUnits="userSpaceOnUse" x1="286.3033" x2="266.6066" xlink:href="#e" y1="101.6775" y2="74.0082"/><linearGradient id="x" gradientTransform="matrix(1 0 0 -1 0 602)" gradientUnits="userSpaceOnUse" x1="680.3412" x2="691.6569" xlink:href="#m" y1="337.8646" y2="337.8646"/><linearGradient id="y" gradientTransform="matrix(1 0 0 -1 0 602)" gradientUnits="userSpaceOnUse" x1="702.1306" x2="713.4462" xlink:href="#m" y1="419.1065" y2="419.1065"/><linearGradient id="z" gradientTransform="matrix(1 0 0 -1 0 602)" gradientUnits="userSpaceOnUse" x1="130.1459" x2="730.872" xlink:href="#e" y1="293.0173" y2="293.0173"/><linearGradient id="A" gradientTransform="matrix(1 0 0 -1 0 602)" gradientUnits="userSpaceOnUse" x1="138.01" x2="182.32" xlink:href="#m" y1="180.18" y2="180.18"/><linearGradient id="B" gradientTransform="matrix(1 0 0 -1 0 602)" gradientUnits="userSpaceOnUse" x1="692.0675" x2="677.9116" xlink:href="#m" y1="190.9904" y2="248.3592"/><linearGradient id="C" gradientTransform="matrix(1 0 0 -1 0 602)" gradientUnits="userSpaceOnUse" x1="628.5544" x2="550.7562" xlink:href="#m" y1="383.7326" y2="254.1734"/><linearGradient id="D" gradientTransform="matrix(1 0 0 -1 0 602)" gradientUnits="userSpaceOnUse" x1="377.0971" x2="552.3039" xlink:href="#m" y1="423.139" y2="234.8795"/><linearGradient id="E" gradientTransform="matrix(1 0 0 -1 0 602)" gradientUnits="userSpaceOnUse" x1="159.7905" x2="322.4317" xlink:href="#m" y1="404.9813" y2="310.2705"/><linearGradient id="F" gradientTransform="matrix(1 0 0 -1 0 602)" gradientUnits="userSpaceOnUse" x1="650.7585" x2="709.0779" xlink:href="#m" y1="310.0416" y2="310.0416"/><linearGradient id="G" gradientTransform="matrix(1 0 0 -1 0 602)" gradientUnits="userSpaceOnUse" x1="409.2125" x2="279.5482" xlink:href="#m" y1="185.9498" y2="279.2879"/><linearGradient id="H" gradientTransform="matrix(1 0 0 -1 0 602)" gradientUnits="userSpaceOnUse" x1="292.6064" x2="365.6307" xlink:href="#a" y1="324.4533" y2="324.4533"/><linearGradient id="I" gradientTransform="matrix(1 0 0 -1 0 602)" gradientUnits="userSpaceOnUse" x1="408.563" x2="421.6293" xlink:href="#k" y1="379.4901" y2="341.444"/><linearGradient id="J" gradientTransform="matrix(1 0 0 -1 0 602)" gradientUnits="userSpaceOnUse" x1="417.734" x2="416.4471" xlink:href="#k" y1="355.9323" y2="326.1912"/><linearGradient id="K"><stop offset="0" stop-color="#ffbeb6"/><stop offset="1" stop-color="#f2a19c"/></linearGradient><linearGradient id="L" gradientTransform="matrix(1 0 0 -1 0 602)" gradientUnits="userSpaceOnUse" x1="425.7654" x2="398.8642" xlink:href="#K" y1="324.8814" y2="362.5432"/><linearGradient id="M" gradientTransform="matrix(1 0 0 -1 0 602)" gradientUnits="userSpaceOnUse" x1="320.9612" x2="334.2675" xlink:href="#K" y1="364.9215" y2="389.8497"/><linearGradient id="N" gradientTransform="matrix(1 0 0 -1 0 602)" gradientUnits="userSpaceOnUse" x1="371.1517" x2="306.6292" xlink:href="#a" y1="301.8473" y2="354.7809"/><linearGradient id="O" gradientTransform="matrix(1 0 0 -1 0 602)" gradientUnits="userSpaceOnUse" x1="322.9825" x2="246.5011" xlink:href="#k" y1="330.2998" y2="171.5648"/><path d="m681.4 266.7h8.9v20.5h-8.9z" fill="url(#b)"/><path d="m710 178.8-5.7 7.4-108.5-90.2h14.3z" fill="url(#c)"/><path d="m690.3 262.8h-8.9l22-78h8.9z" fill="url(#d)"/><path d="m559 96v.2c0 14.1 11.5 25.5 25.6 25.5s25.5-11.4 25.5-25.5c0-.1 0-.1 0-.2z" fill="url(#f)"/><path d="m646 296.7h-156.4l-.1-4.8h156.4z" fill="#23286b"/><circle cx="361.7" cy="509.8" fill="url(#g)" r="10.4"/><path d="m390.9 262.1h32.7v30.3h-32.7z" fill="url(#i)"/><path d="m368.2 292h80.8v4.8h-80.8z" fill="#428dfc"/><path d="m221.6 279h26.9v13.5h-26.9z" fill="url(#j)"/><path d="m203.8 292.5h63.5v4.3h-63.5z" fill="#428dfc"/><path d="m265.5 360h136.9v25.3h-136.9z" fill="url(#l)"/><path d="m309 385.3h49.7c0 4.4-3.6 7.9-7.9 7.9h-33.8c-4.5 0-8-3.5-8-7.9z" fill="url(#n)"/><path d="m327.7 393.1h12.2v22.3h-12.2z" fill="url(#o)"/><path d="m332.5 413h2.7c4.4 0 8 3.6 8 8v65.2h-18.7v-65.2c-.1-4.4 3.5-8 8-8z" fill="url(#p)"/><path d="m333.9 486.2h46c5.7 0 10.2 4.6 10.2 10.2v3.3h-3.3v-.7-1.4c0-4.5-3.6-8.1-8.1-8.1h-44.8z" fill="url(#q)"/><path d="m333.9 486.2h19.4c5.7 0 10.2 4.6 10.2 10.2v3.3h-3.3v-.7-1.4c0-4.5-3.6-8.1-8.1-8.1h-18.2z" fill="#23286b"/><path d="m334.1 486.2h-46c-5.7 0-10.2 4.6-10.2 10.2v3.3h3.3v-.7-1.4c0-4.5 3.6-8.1 8.1-8.1h44.8z" fill="url(#r)"/><path d="m334.1 486.2h-19.4c-5.7 0-10.2 4.6-10.2 10.2v3.3h3.3v-.7-1.4c0-4.5 3.6-8.1 8.1-8.1h18.2z" fill="#23286b"/><circle cx="306.1" cy="509.8" fill="url(#s)" r="10.4"/><circle cx="388.5" cy="509.8" fill="url(#t)" r="10.4"/><path d="m373.3 486.6-12 33.5h84.8s-4.4-8.4-18.9-14.6-28-18.9-28-18.9z" fill="url(#u)"/><path d="m313.2 332.4s11.1 25.6 44.4 29.1 19.8 37.4 16.9 42.7-6.5 9.9-8.6 18.1.9 18.8-2.4 24.8-17.2 26.2-12.9 39.5h48.7s28.1-110.6 26.2-121.5 1.2-19.7-28.1-33.3-49-22.1-49-22.1z" fill="url(#v)"/><circle cx="279.5" cy="509.8" fill="url(#w)" r="10.4"/><circle cx="686" cy="264.1" fill="url(#x)" r="5.7"/><circle cx="707.8" cy="182.9" fill="url(#y)" r="5.7"/><path d="m130.1 296.7h600.7v24.5h-600.7z" fill="url(#z)"/><path d="m138.5 321.1h577.8v7.8h-577.8z" fill="#23286b"/><path d="m182.3 329-34.3 185.7h-10l34.4-185.7z" fill="url(#A)"/><path d="m716.9 514.7h-10l-34.3-185.7h9.9z" fill="url(#B)"/><path d="m645.9 291.9h-104.9l16.4-57.8h105.2z" fill="url(#C)"/><path d="m289.2 159.9h235.9v102.5h-235.9z" fill="url(#D)"/><path d="m162 202.4h147v77.5h-147z" fill="url(#E)"/><path d="m660.3 287.2h39.2c5.3 0 9.6 4.3 9.6 9.6h-58.3c0-5.3 4.2-9.6 9.5-9.6z" fill="url(#F)"/><g fill="#fff"><path d="m173.8 212.8h73.4v2.8h-73.4z"/><path d="m173.8 219.4h73.4v2.8h-73.4z"/><path d="m173.8 226h73.4v2.8h-73.4z"/><path d="m173.8 232.6h73.4v2.8h-73.4z"/><path d="m629.3 245.4-67.5-.2.8-2.5 67.5.2z"/><path d="m627.7 251.1-67.5-.1.7-2.5 67.5.1z"/><path d="m626 256.8-67.5-.1.7-2.5 67.5.2z"/><path d="m624.3 262.7-67.5-.2.7-2.5 67.5.2z"/><path d="m373.8 213.6 13.6-14.6-3.6-3.3-16.2 17.3-.8.8.9.8 17.4 16.1 3.3-3.6z"/><path d="m434.6 213.6-13.6-14.6 3.6-3.3 16.1 17.4.8.8-.9.8-17.4 16.1-3.3-3.6z"/><path d="m409 189.4-14.1 46.4 4.5 1.3 14.1-46.4z"/></g><path d="m404.3 486.6-12 33.5h84.8s-4.4-8.4-18.9-14.6-28-18.9-28-18.9z" fill="#428dfc"/><path d="m322.9 326.5s-3.1 28.7 35.3 34.9 40.1 10.9 40.4 20.7-2.6 15.6-6.2 25.7-3.7 24-1.8 32.1-6.5 18.2-10.4 27.7c-2.4 6.1-3.3 12.7-2.6 19.2h52.6s14.1-94.9 15.1-108.9 5.5-28.3-12.7-37.7-57.2-26.6-57.2-26.6z" fill="url(#G)"/><path d="m352.3 331.8c-.1.1-.1.2 0 .3s.2.1.3 0 .1-.2 0-.3-.2-.1-.3 0zm-3.1 3.3c-.1.1-.1.2 0 .3s.2.1.3 0 .1-.2 0-.3-.2 0-.3 0zm17.4 7.5c-.1 0-.2.1-.2.2s.1.2.2.2.2-.1.2-.2c0-.2-.1-.2-.2-.2zm-4.6.1c-.1 0-.2.1-.2.2s.1.2.2.2.2-.1.2-.2-.1-.2-.2-.2zm-4.5.2c-.1 0-.2.1-.2.2s.1.2.2.2.2-.1.2-.2c0-.2-.1-.2-.2-.2zm-4.6.1c-.1 0-.2.1-.2.2s.1.2.2.2.2-.1.2-.2-.1-.2-.2-.2zm6.8 17.5c-.1.1-.1.2 0 .3s.2.1.2 0c.1-.1.1-.2 0-.3s-.1 0-.2 0zm2.3-26.6c-.1 0-.1.2-.1.2s.2.1.2.1c.1 0 .1-.2.1-.2 0-.1-.1-.1-.2-.1zm-4.2 1.9c-.1 0-.1.2-.1.2s0 .1.1.1h.2c.1 0 .1-.1.1-.2-.1-.1-.2-.2-.3-.1zm-4.1 1.9c-.1 0-.1.1-.1.2s.1.1.2.1.1-.1.1-.2-.1-.2-.2-.1zm-4.2 1.8c-.1 0-.1.2-.1.2 0 .1.1.1.2.1s.1-.1.1-.2-.1-.1-.2-.1zm13.1 11.9c0 .1 0 .2.1.2s.2 0 .2-.1 0-.2-.1-.2-.2 0-.2.1zm-4.3-1.6c0 .1 0 .2.1.2s.2 0 .2-.1 0-.2-.1-.2-.1 0-.2.1zm-5-17.7c-.2.1-.2.3-.2.5.1.1.2.2.3.2h.2s.1-.1.1-.1c.1-.1.1-.4 0-.5-.1-.2-.2-.2-.4-.1zm33.9 20c-.1.2 0 .4.2.4.2.1.4 0 .4-.2.1-.2 0-.4-.2-.4-.1-.1-.3 0-.4.2zm-8.3-2.5c-.1.2.1.4.2.4.2.1.4 0 .4-.2.1-.2 0-.4-.2-.4-.1-.1-.3 0-.4.2zm-8.2-2.5c0 .2.1.4.2.5.2.1.4 0 .4-.2.1-.2 0-.4-.2-.4-.2-.2-.4-.1-.4.1zm-8.3-2.5c-.1.2.1.4.2.4.2.1.4 0 .4-.2.1-.2 0-.4-.2-.4-.1-.1-.3 0-.4.2zm-8.2-2.5c-.1.2.1.4.3.4.2.1.4-.1.4-.2.1-.2 0-.4-.2-.4-.3-.1-.5 0-.5.2zm31-8.9c-.2 0-.4.2-.3.4s.2.4.4.3.4-.2.3-.4-.2-.3-.4-.3zm-8.6.8c-.2 0-.4.2-.3.4 0 .2.2.4.4.3.2 0 .4-.2.3-.4 0-.1-.2-.3-.4-.3zm-8.6.9c-.2 0-.3.2-.3.4s.2.3.4.3.3-.2.3-.4-.2-.3-.4-.3zm-8.6.9c-.2 0-.3.2-.3.4s.2.3.4.3.3-.2.3-.4-.2-.3-.4-.3zm-8.6.8c-.2 0-.3.2-.3.4s.2.3.4.3.3-.2.3-.4c0-.1-.2-.3-.4-.3zm18.2 22.9c-.1.1-.1.4 0 .5.2.1.4.1.5 0 .1-.2.1-.4-.1-.5 0-.1-.3-.1-.4 0zm-6.7-5.4c-.1.2-.1.4 0 .5s.4.1.5 0 .1-.4 0-.5c-.1-.2-.3-.2-.5 0zm-6.7-5.5c-.1.2-.1.4.1.5.1.1.4.1.5 0 .1-.2.1-.4 0-.5-.2-.1-.4-.1-.6 0zm28.5-23.7c-.2 0-.3.2-.3.4s.2.3.4.3.3-.2.2-.4c.1-.3-.1-.4-.3-.3zm-7.5 1.5c-.2 0-.3.2-.2.4 0 .2.2.3.4.2.2 0 .3-.2.2-.4s-.2-.3-.4-.2zm-7.6 1.5c-.1 0-.1 0-.2.1s-.1.2-.1.3c0 .2.2.3.4.3s.3-.2.2-.4c0-.1-.1-.1-.1-.2s-.1-.2-.2-.1zm-7.5 1.5c-.2 0-.3.2-.2.4 0 .2.2.3.4.3s.3-.2.3-.4c-.2-.3-.4-.4-.5-.3zm16.1 27.4c-.1.1-.1.3.1.4.1.1.3.1.4-.1s.1-.3-.1-.5c-.1 0-.3 0-.4.2zm-6.4-4.3c-.1.1-.1.3.1.4.1.1.3.1.4-.1.1-.1.1-.3-.1-.4-.1-.1-.3 0-.4.1zm-6.4-4.3c-.1.1-.1.3.1.4.1.1.3.1.4-.1.1-.1.1-.3-.1-.4-.1-.1-.3 0-.4.1zm-6.4-4.3c-.1.1 0 .3.1.4s.3.1.4-.1c.1-.1.1-.3-.1-.4-.1 0-.3 0-.4.1zm-6.4-4.2c-.1.2-.1.3.1.5.1.1.3.1.4-.1.1-.1.1-.3-.1-.4-.1-.2-.3-.2-.4 0zm28.2.6c0 .2.1.3.3.4.2 0 .3-.1.4-.2 0-.2-.1-.3-.2-.4-.3-.1-.5 0-.5.2zm-7.5-1.5c0 .2.1.3.3.4.2 0 .3-.1.4-.2 0-.2-.1-.3-.2-.4-.3-.1-.5 0-.5.2zm-7.6-1.6c0 .2.1.3.2.4.2 0 .3-.1.4-.3 0-.2-.1-.3-.2-.4-.2.1-.3.2-.4.3zm-7.5-1.5c0 .2.1.3.2.4h.2c.1 0 .2-.1.2-.2 0-.2-.1-.3-.3-.4-.1 0-.3.1-.3.2zm-7.6-1.5v.2c.1 0 .1.1.1.2h.1c.2 0 .3-.1.4-.2 0-.2-.1-.3-.3-.4-.1-.1-.3.1-.3.2zm9.9 24.1c-.1.1-.2.3-.1.5.1.1.3.2.4.1s.2-.3.1-.4c-.1-.3-.3-.3-.4-.2zm6.2-20.4c0 .1 0 .2.1.2s.2 0 .2-.1 0-.2-.1-.2-.2 0-.2.1zm-4.2-1.7c0 .1 0 .2.1.2s.2 0 .2-.1 0-.2-.1-.3c-.1 0-.2.1-.2.2zm-4.2-1.8c0 .1 0 .2.1.2s.2 0 .2-.1 0-.2-.1-.2-.2 0-.2.1zm-4.2-1.7c0 .1 0 .2.1.2s.2 0 .2-.1 0-.2-.1-.2c-.1-.1-.2 0-.2.1zm12.2-4.6c-.1 0-.2.1-.2.2s.1.2.2.2.2-.1.2-.2-.1-.2-.2-.2zm-6.7 16.1c-.1.1-.1.2 0 .2.1.1.2.1.3 0s.1-.2 0-.3c-.1 0-.2 0-.3.1zm-3.2-3.2c-.1.1-.1.2 0 .2.1.1.2.1.3 0s.1-.2 0-.3c-.1 0-.2 0-.3.1zm-3.2-3.2c-.1.1-.1.2 0 .3s.2.1.3 0 .1-.2 0-.3-.2-.1-.3 0zm-3.1-3.3c-.1 0-.1 0-.1 0-.1.1-.1.2 0 .3h.1.2c.1-.1.1-.2 0-.3-.1 0-.1 0-.2 0zm17.9 4.2c-.1.1 0 .2.1.3s.2 0 .3-.1.1-.2 0-.3c-.2 0-.3 0-.4.1zm-4.3-2.8c-.1.1 0 .2.1.3s.2 0 .3-.1 0-.2-.1-.3c-.1 0-.3 0-.3.1zm-4.4-2.8c-.1.1 0 .2.1.3s.2 0 .3-.1 0-.2 0-.3c-.2 0-.3 0-.4.1zm10.4-5.3c-.1 0-.2 0-.3.2 0 .1.1.2.2.2s.2 0 .3-.2v-.1c0-.1-.1-.1-.2-.1zm-10.9 16.7c-.1.1-.1.2-.1.3.1.1.2.1.3.1.1-.1.1-.2.1-.3s-.2-.2-.3-.1zm-2.9-4.3c-.1.1-.1.2-.1.3.1.1.2.1.3.1.1-.1.1-.2.1-.3-.1-.1-.2-.2-.3-.1zm-2.9-4.3c-.1.1-.1.2-.1.3.1.1.2.1.3 0s.1-.2.1-.3c-.1 0-.2 0-.3 0zm39.4-7.7c0 .2.1.4.3.4s.4-.1.4-.3-.1-.4-.3-.4c-.2-.1-.4.1-.4.3zm-8.7-1.9c0 .2.1.4.3.4s.4-.1.4-.3-.1-.4-.3-.4-.4.1-.4.3zm-8.7-1.8c0 .2.1.4.3.4s.4-.1.4-.3-.1-.4-.3-.4-.4.1-.4.3zm-3.6 34.3c-.2.1-.2.3-.1.5s.3.2.5.1.2-.3.1-.5c-.1-.1-.3-.2-.5-.1zm-4.9-7.4c-.2.1-.2.3-.1.5s.3.2.5.1.2-.3.1-.5-.3-.2-.5-.1zm-4.8-7.5c-.2.1-.2.3-.1.5s.3.2.5.1.2-.3.1-.5c-.1-.1-.3-.2-.5-.1zm-4.9-7.4c-.2.1-.2.3-.1.5s.3.2.5.1.2-.3.1-.5-.3-.2-.5-.1zm25 6.2c-.1.2-.1.4.1.5s.4.1.5-.1.1-.4-.1-.5c-.1-.1-.4-.1-.5.1zm-7.3-5c-.1.2-.1.4.1.5s.4.1.5-.1.1-.4-.1-.5-.4-.1-.5.1zm-7.4-5c-.1.2-.1.4.1.5s.4.1.5-.1.1-.4-.1-.5c-.1-.1-.3-.1-.5.1zm19.3 6c-.1.2-.1.4.1.5s.4.1.5-.1.1-.4-.1-.5c-.1-.1-.4-.1-.5.1zm-7.5-4.7c-.1.2 0 .4.1.5.2.1.4 0 .5-.1.1-.2.1-.4-.1-.5s-.4-.1-.5.1zm-7.5-4.7c-.1.2-.1.4.1.5s.4.1.5-.1.1-.4-.1-.5-.4 0-.5.1zm-19.1 13.7c-.2 0-.3.2-.3.4s.2.3.4.3.3-.2.3-.4c0-.3-.2-.4-.4-.3zm-2-8.7c-.1 0-.2.1-.2.2-.1.1-.1.2-.1.3v.1c.1.2.3.3.5.2s.3-.3.2-.4c0-.1-.1-.1-.1-.2-.1-.2-.2-.2-.3-.2zm20.6 14.3c-.2.1-.2.3-.1.5s.3.2.5.1.2-.3.1-.5-.4-.3-.5-.1zm-5.2-7.2c-.2.1-.2.3-.1.5s.3.2.5.1.2-.3.1-.5-.3-.3-.5-.1zm-5.1-7.2c-.2.1-.2.3-.1.5s.3.2.5.1.2-.3.1-.5-.4-.3-.5-.1zm11.6-.9c-.1.1-.1.3 0 .4s.3.1.4 0 .1-.3 0-.4-.3-.1-.4 0zm-4.8-4.6c-.1.1-.1.3 0 .4s.3.1.4 0 .1-.3 0-.4-.3-.1-.4 0zm-8.2 9.7c-.1.1-.2.2-.2.3.1.1.2.2.4.2.1-.1.2-.2.1-.4 0-.1-.2-.2-.3-.1zm-2.7-6.1c-.1.1-.2.2-.1.4.1.1.2.2.4.1.1-.1.2-.2.1-.4-.1-.1-.3-.2-.4-.1z" fill="#fff" opacity=".86"/><path d="m317.9 225.2s-34.4 49.3-23 99.6c0 0 37.3 18.1 70.7-14.2 0 0-30.8-60.3-32.5-77.4z" fill="url(#H)"/><path d="m406.4 238.5h21.1v15.4c0 5.8-4.7 10.6-10.6 10.6-5.8 0-10.6-4.7-10.6-10.6z" fill="url(#I)"/><path d="m415.8 244.9h3.1c1.3 0 2.4 1.1 2.4 2.4v15.8h-7.8v-15.8c-.1-1.3 1-2.4 2.3-2.4z" fill="url(#J)"/><path d="m403.9 267s6-11.6 9.5-13.8c0 0 0 8 3.6 7.9 4.2-.1 4.4-7.4 4.2-10.9-.1-2.5-.4-2.3 1.9-1.6 1.5.5 10.1 4.7 8.4 16.3s-18.8 11.7-21.1 13.1c-1 .6-2 1.2-3 1.8z" fill="url(#L)"/><path d="m333.2 233.2-15.3-8 4.7-10.2c4.2 2.4 9 3.5 13.8 3.1-.8 2.2-4.1 12-3.2 15.1z" fill="url(#M)"/><path d="m317.9 225.2s17 1.1 23.8 22.6 8.4 37.9 22.8 35.1 30.4-10.4 39.1-17.2l9.6 36.7s-8.8 13.2-21.6 14.4-22.4 8.8-29.9 12-24.7 8.4-33.1-3.6-22-50.3-20-83.9c2.7-5.5 5.8-10.9 9.3-16.1z" fill="url(#N)"/><path d="m357.6 385.3h-92.1l-23.2-123.8c-1.7-9.2 4.3-18.1 13.6-19.8 1-.2 2.1-.3 3.1-.3h57.5c8.2 0 15.2 5.8 16.7 13.8z" fill="url(#O)"/><path d="m350.5 206.6s-2.3 9-11.6 11.1c-7.5 1.7-14-1.5-16.3-2.8.2-.3 3.7-6.2 0-8.6-3.8-2.5-3.8-3.8-3.9-5.6s2.6-4.3 7.1-2.8c4.5 1.6 9-2.3 9.3-7.7 4.6.8 9.2.5 13.6-.9.6 1.4 3.9 10 5.3 12.4 1.6 2.6-2.2 4.7-3.5 4.9z" fill="#ffbeb6"/><path d="m357.3 189.2c-.5-.3-1.1-.5-1.7-.5-1.6 0-3.3 1.3-4.1 3.5-.1.3-.2.7-.3 1.1-.3-.1-.6-.2-1-.2-1.1 0-2.1.3-3 .9 0-.2 0-.4-.1-.6-.2-1.2-.7-2.3-1.5-3.2-.2-.3-.5-.5-.8-.7-1.8-1.1-3.9-.6-5.4 1.2-.6.7-1 1.4-1.4 2.3-.6 1.6-.8 3.4-.5 5.2.2 1.2.8 2.4 1.6 3.3.2.2.4.4.7.6 1.1.7 2.6.8 3.8.1 1.4-.8 2.4-2.1 2.9-3.6.4-1.2.7-2.4.6-3.6.9-.7 2.1-1.1 3.2-1 .1 0 .3.1.4.1v.2.2c0 .2 0 .4.1.6.7 1.7 1.4 3.4 2 4.7 2 1.3 4.6 0 5.8-3 1.4-2.8.7-6.3-1.3-7.6zm-11.3 8.9c-.5 1.3-1.4 2.5-2.6 3.2-1 .6-2.2.5-3.1-.1-1-.8-1.7-1.9-1.9-3.2-.3-1.5-.1-3.1.4-4.6.4-1 1-2 1.9-2.7 1-1 2.6-1.2 3.9-.4 0 0 .1.1.1.1.2.1.3.2.5.4.7.8 1.2 1.7 1.4 2.7.1 1.5 0 3.1-.6 4.6zm12.2-1.6c-1 2.5-3.1 3.7-4.8 2.6s-2.2-4-1.2-6.5 3.1-3.7 4.8-2.6c1.6 1 2.2 4 1.2 6.5z" fill="#fff"/><path d="m362.1 168.1c-.1-.2-.3-.3-.5-.2s-.3.3-.3.4c3.8 12.7-6.1 20.9-17.1 22.1 4.9-.7 10.6-2.9 14.3-9 7.4-12.3-3.4-17-9.6-13.7s-10.6 9.7-10.6 9.7-9.7-7.6-25.4-1.3-9.9 25.4-4.3 30.9 14 7.9 14 7.9 3.8-6.1 0-8.6-3.8-3.8-3.9-5.6 2.6-4.3 7.1-2.8c4.4 1.5 8.8-2.2 9.3-7.4 7.3 1.8 15.2 1.2 21.2-3.8 5.6-4.3 7.9-11.8 5.8-18.6z" fill="#428dfc"/></svg>