<svg height="1500" viewBox="0 0 1500 1500" width="1500" xmlns="http://www.w3.org/2000/svg" xmlns:xlink="http://www.w3.org/1999/xlink"><clipPath id="a"><path d="m0 0h300v300h-300z"/></clipPath><clipPath id="b"><path d="m0 0h200v110h-200z"/></clipPath><clipPath id="c"><path d="m0 0h400v351h-400z"/></clipPath><linearGradient id="d"><stop offset="0" stop-color="#ffbeb6"/><stop offset="1" stop-color="#f2a19c"/></linearGradient><linearGradient id="e" gradientUnits="userSpaceOnUse" x1="312.55962" x2="271.38916" xlink:href="#d" y1="81.21924" y2="84.15334"/><linearGradient id="f" gradientUnits="userSpaceOnUse" x1="272.34775" x2="221.2543" xlink:href="#d" y1="82.95078" y2="83.29521"/><linearGradient id="g" gradientUnits="userSpaceOnUse" x1="271.98901" x2="223.94929" xlink:href="#d" y1="175.60725" y2="175.07288"/><linearGradient id="h" gradientUnits="userSpaceOnUse" x1="362.8291" x2="377.65308" y1="208.03423" y2="149.36814"><stop offset="0" stop-color="#428dfc"/><stop offset="1" stop-color="#1d72d8"/></linearGradient><linearGradient id="i" gradientUnits="userSpaceOnUse" x1="231.60562" x2="217.57727" y1="211.42788" y2="328.96592"><stop offset="0" stop-color="#23286b"/><stop offset="1" stop-color="#151a4f"/></linearGradient><linearGradient id="j" gradientUnits="userSpaceOnUse" x1="308.22344" x2="393.8168" y1="133.49148" y2="176.15635"><stop offset="0" stop-color="#a1c3fc"/><stop offset="1" stop-color="#78a9ef"/></linearGradient><linearGradient id="k" gradientUnits="userSpaceOnUse" x1="173.90613" x2="294.65957" y1="175.35361" y2="175.35361"><stop offset="0" stop-color="#eee"/><stop offset="1" stop-color="#d6d7d8"/></linearGradient><linearGradient id="l" gradientUnits="userSpaceOnUse" x1="237.73657" x2="238.98364" xlink:href="#d" y1="184.97683" y2="214.79456"/><g clip-path="url(#a)" transform="matrix(1.23333333 0 0 1.23333333 434 475)"><circle cx="150" cy="150" fill="#d6e5fe" r="150"/><path d="m186.705 69.125c0-16.792 13.742-30.406 30.699-30.406s30.699 13.614 30.699 30.406c.587-.587-61.398 0-61.398 0z" fill="#fff"/><path d="m251.974 69.125h-7.75c0-14.764-12.035-26.82-26.82-26.82s-26.82 12.064-26.82 26.82h-7.75c0-18.821 15.506-34.57 34.57-34.57s34.57 15.75 34.57 34.57z" fill="#a1c3fc"/><path d="m195.812 213.383c16.792 0 30.406 13.742 30.406 30.699 0 16.956-13.614 30.699-30.406 30.699 0 0 .059-61.457 0-61.398z" fill="#fff"/><path d="m195.812 278.644v-7.75c14.764 0 26.82-12.035 26.82-26.82 0-14.792-12.064-26.82-26.82-26.82v-7.75c18.821 0 34.57 15.506 34.57 34.57 0 19.063-15.749 34.57-34.57 34.57z" fill="#a1c3fc"/><path d="m45.898 117.694c-16.792 0-29.357 13.774-30.406 30.699-1.368 22.085 30.023 32.133 30.406 30.699z" fill="#fff"/><g fill="#a1c3fc"><path d="m45.898 182.956v-7.75c-14.764 0-26.82-12.035-26.82-26.82s12.064-26.82 26.82-26.82v-7.75c-18.821 0-34.57 15.506-34.57 34.57 0 19.063 15.749 34.57 34.57 34.57z"/><path d="m237.932 107.581h-48.998l39.012-50.305 7.9 6.128-26.506 34.177h28.592z"/><path d="m45.009 164.243h10v53.46h-10z" transform="matrix(-.7903 -.6128 .6128 -.7903 -27.4927 372.5362)"/><path d="m184.313 236.203h-10v-48.105h48.962v10h-38.962z"/></g><path d="m169.935 233.982c-.093-.321.086-.657.407-.757.307-.086.629.1.714.407 0 .007.007.014.007.014.093.336-.086.671-.407.764-.314.072-.628-.121-.721-.428zm14.006-3.95c-.093-.321.086-.664.414-.757.321-.093.664.086.757.414.093.321-.086.664-.414.757-.314.079-.65-.1-.757-.414zm-6.764-57.404c.157-.286.521-.393.807-.236s.393.521.236.807-.521.393-.807.236c-.293-.158-.4-.515-.236-.807zm25.428 14.213c.157-.286.521-.393.807-.236.293.171.4.536.257.843-.186.286-.557.379-.864.221-.279-.178-.372-.542-.2-.828zm12.699 7.121c.157-.286.521-.393.807-.236.293.171.407.543.257.843-.157.286-.521.393-.807.236-.3-.171-.407-.543-.257-.843zm9.978-58.84c-.093-.321.086-.664.414-.757.293-.093.607.064.7.35.007.021.014.05.014.079.1.307-.064.636-.371.736-.321.099-.664-.079-.757-.408zm-50.055 68.983c.036-.321.321-.55.643-.521.321.036.55.321.521.643-.029.321-.321.55-.643.521-.307-.014-.543-.279-.521-.586-.007-.015 0-.036 0-.057zm28.913 3.392c.05-.314.35-.529.664-.479.321.036.557.314.521.636-.036.321-.314.557-.636.521h-.007c-.336-.036-.579-.321-.543-.65l.007-.014zm14.478 1.736c.014-.307.279-.543.586-.521.014 0 .043 0 .057.007.329.029.571.321.543.65 0 .007 0 .021-.007.029-.036.321-.321.55-.643.521-.329-.036-.571-.329-.543-.657.007-.015.007-.029.007-.029zm-16.478-53.548c-.186-.279-.136-.65.114-.871.264-.207.657-.164.871.114.214.271.164.657-.114.871-.278.186-.649.136-.871-.114zm9.021 11.428c-.193-.264-.136-.636.129-.836.236-.214.6-.2.814.036.007.014.021.029.036.043.2.271.15.65-.114.871-.272.186-.643.136-.865-.114zm-98.673 51.641c.021-.621.55-1.107 1.171-1.086h.043c.614.029 1.093.55 1.064 1.171v.007c-.021.629-.55 1.114-1.171 1.093-.014 0-.029 0-.043 0-.614-.029-1.093-.55-1.064-1.171zm27.562 1.393c.036-.636.579-1.121 1.214-1.086.636.036 1.121.579 1.086 1.214-.029.614-.55 1.093-1.171 1.064h-.007c-.636-.035-1.129-.564-1.122-1.192zm27.592 1.371c.036-.636.579-1.121 1.214-1.086.636.036 1.121.579 1.086 1.214-.036.636-.579 1.121-1.214 1.086-.621-.021-1.107-.55-1.086-1.171 0-.014 0-.029 0-.043zm-32.598-108.338c-.414-.479-.371-1.193.1-1.614.436-.421 1.129-.414 1.557.014.014.014.029.029.043.043.414.471.371 1.193-.1 1.614-.458.429-1.172.4-1.6-.057zm18.492 20.471c-.421-.464-.393-1.193.079-1.621.464-.421 1.193-.393 1.621.079l.021.021c.421.457.393 1.171-.064 1.593-.493.413-1.207.385-1.657-.072zm18.542 20.492c-.421-.457-.393-1.171.071-1.586.007-.007.021-.014.029-.029.436-.421 1.129-.414 1.557.014l.043.043c.407.486.371 1.207-.079 1.657-.479.415-1.193.365-1.621-.099zm37.041 40.955c-.421-.457-.393-1.164.057-1.586.457-.421 1.164-.393 1.586.057l.029.029c.429.45.4 1.157-.05 1.578-.007.007-.014.007-.021.014-.466.429-1.18.379-1.601-.092zm-77.211 68.868c-.207-.6.107-1.25.707-1.457.593-.207 1.25.107 1.457.707 0 0 0 .007.007.014.2.6-.121 1.25-.714 1.457s-1.236-.1-1.45-.693c0-.014-.007-.021-.007-.028zm26.042-9.257c-.229-.579.05-1.229.629-1.457.571-.229 1.229.05 1.457.629.007.029.021.05.029.079.207.579-.1 1.221-.686 1.429-.587.199-1.215-.101-1.429-.68zm-47.541-87.91c.286-.557.964-.779 1.529-.486.557.286.779.964.486 1.529-.279.543-.943.771-1.493.507-.565-.3-.801-.986-.522-1.55zm24.942 11.842c.286-.557.964-.779 1.529-.486.557.286.779.964.486 1.529-.279.543-.943.771-1.5.5-.558-.285-.787-.971-.515-1.543zm24.934 11.807c.293-.571.993-.793 1.564-.5.55.279.786.943.536 1.507-.257.586-.95.85-1.536.586s-.85-.95-.586-1.536c.008-.014.008-.036.022-.057zm27.856-94.288c-.2-.6.121-1.25.714-1.457.579-.214 1.214.086 1.429.664l.007.014c.236.557-.021 1.2-.579 1.436-.029.007-.05.021-.086.036-.599.192-1.242-.108-1.485-.693zm9.285 26.02c-.193-.6.114-1.25.693-1.486.6-.2 1.25.121 1.457.714s-.1 1.236-.693 1.45c-.007 0-.014.007-.021.007-.579.214-1.214-.086-1.429-.664-.007-.014-.007-.014-.007-.021zm9.264 25.984c-.221-.564.057-1.2.621-1.414.014-.007.036-.014.05-.014.579-.229 1.243.057 1.471.636.007.021.014.036.021.05.207.6-.107 1.25-.707 1.457s-1.25-.107-1.457-.707c.008.007.008 0 .001-.008zm9.257 26.042c-.2-.6.121-1.25.714-1.457.564-.214 1.2.064 1.414.629.007.014.014.036.014.05.214.586-.071 1.236-.657 1.471-.599.207-1.257-.1-1.485-.693zm-116.502 17.356c.193-.521.771-.8 1.3-.614s.8.764.614 1.3c-.186.529-.764.8-1.3.614-.521-.2-.792-.771-.614-1.3zm23.171 8.393c.193-.521.771-.8 1.3-.614.536.171.821.743.65 1.279s-.743.821-1.279.65c-.021-.007-.036-.014-.057-.021-.521-.171-.8-.736-.629-1.257.007-.009.015-.03.015-.037zm23.22 9.114c-.129-.221-.143-.486-.043-.729.193-.521.771-.8 1.3-.614.543.193.829.779.636 1.321 0 .007 0 .007-.007.014-.114.321-.379.564-.707.65l-.036.021c-.186.057-.386.036-.55-.057-.286-.085-.507-.321-.593-.606zm23.127 7.656c.2-.536.793-.807 1.321-.607.536.2.807.793.607 1.321-.193.521-.771.8-1.3.614-.543-.193-.829-.779-.636-1.321.008.008.008.001.008-.007zm.493-100.945c-.221-.529 0-1.136.514-1.386.493-.236 1.079-.029 1.314.464.007.014.007.029.014.043.25.5.043 1.114-.464 1.357-.007 0-.014.007-.021.007-.5.222-1.093.008-1.357-.485zm10.457 22.263c-.229-.507 0-1.1.5-1.329.493-.236 1.079-.029 1.314.464.007.014.007.029.014.043.25.5.043 1.114-.464 1.357-.007 0-.014.007-.021.007-.515.216-1.107-.027-1.343-.542zm10.464 22.364c-.25-.5-.043-1.114.464-1.357.007 0 .014-.007.021-.007.471-.243 1.05-.057 1.293.414.014.029.029.057.043.086.25.5.043 1.114-.464 1.357-.007 0-.014.007-.021.007-.508.214-1.094-.008-1.336-.5zm10.428 22.284c-.221-.521.021-1.121.543-1.35.5-.214 1.093 0 1.329.5.221.507.014 1.107-.479 1.364-.536.229-1.143.001-1.393-.514zm10.464 22.356c-.243-.507-.036-1.121.471-1.371.507-.243 1.121-.029 1.371.471v.007c.221.529 0 1.136-.514 1.386-.507.207-1.079-.007-1.328-.493zm-83.554 39.291c-.029-.55.393-1.021.95-1.05h.05c.536-.036.993.364 1.029.893 0 .021.007.043 0 .064.043.557-.379 1.043-.936 1.086-.014 0-.029 0-.036 0-.564.007-1.028-.436-1.057-.993zm73.854-3.349c-.007-.564.429-1.029 1-1.05.564-.021 1.036.429 1.05 1 .014.564-.429 1.036-1 1.05-.564.014-1.036-.436-1.05-1zm-66.775-83.761c-.4-.393-.421-1.036-.036-1.443.379-.414 1.007-.443 1.421-.071.407.386.45 1.021.093 1.457-.393.421-1.05.443-1.478.057zm18.227 16.607c-.414-.35-.464-.964-.114-1.379.014-.014.029-.029.036-.043.379-.414 1.007-.443 1.421-.071.407.386.45 1.021.093 1.457-.386.407-1.021.421-1.436.036zm18.192 16.634c-.414-.379-.443-1.007-.071-1.421.379-.414 1.007-.443 1.421-.071.414.379.443 1.007.071 1.421-.378.414-1.006.443-1.421.071zm48.355-74.653c-.036-.536.364-.993.893-1.029.021 0 .043-.007.064 0 .557-.043 1.043.379 1.086.936v.036c0 .557-.436 1.021-1 1.05-.55.029-1.021-.393-1.05-.95.007-.015.007-.029.007-.043zm1.114 24.634c-.021-.564.407-1.05.971-1.086.571-.007 1.043.443 1.057 1.014.007.543-.4 1-.943 1.05-.55.043-1.036-.364-1.086-.914.001-.028.001-.042.001-.064zm-82.296 98.196c.057-.329.371-.557.7-.5s.557.371.5.7-.371.557-.7.5c-.321-.065-.543-.372-.5-.7zm28.742 4.485c.05-.314.35-.529.664-.479.307.021.543.293.514.6-.007.029-.007.064-.014.1-.05.314-.35.529-.664.479-.314-.029-.543-.3-.514-.607.007-.036.014-.064.014-.093zm3.25-56.29c-.193-.264-.136-.636.129-.836.264-.193.636-.136.836.129.2.264.136.636-.129.836-.272.2-.644.143-.836-.129zm34.248 46.984c-.193-.264-.136-.636.129-.836.264-.193.643-.129.836.136.186.264.129.629-.129.821-.272.2-.643.143-.836-.121zm-57.226 35.398c-.064-.314.121-.629.429-.721.329-.064.657.136.743.464.086.307-.1.629-.407.714-.007 0-.014.007-.021.007-.33.057-.658-.143-.744-.464zm14.128-3.407c-.079-.314.114-.636.429-.721.3-.093.621.079.714.379.007.014.007.029.007.029.1.307-.064.621-.35.721-.021.007-.05.014-.079.014-.307.086-.629-.1-.714-.407 0-.001 0-.008-.007-.015zm-5.928-52.076c.186-.264.543-.35.829-.2.279.157.379.521.214.8-.007.014-.007.014-.021.029-.15.279-.5.379-.779.229-.014-.007-.036-.014-.036-.014-.293-.194-.379-.558-.207-.844zm12.435 7.549c.186-.264.543-.35.829-.2.279.179.364.543.2.829-.143.286-.493.4-.771.25-.014-.007-.021-.014-.036-.021-.293-.164-.4-.536-.243-.829-.001 0 .014-.014.021-.029zm12.414 7.614c.15-.279.5-.379.779-.229.014.007.036.014.05.029.286.179.371.55.2.829-.186.264-.543.35-.829.2-.279-.157-.379-.521-.221-.8.006-.014.013-.021.021-.029zm19.77-47.862c-.079-.321.114-.643.429-.721.321-.079.643.114.721.429.093.293-.064.607-.35.7-.021.007-.05.014-.079.014-.307.086-.629-.1-.714-.407zm3.414 14.135c-.071-.336.136-.664.464-.743.314-.064.614.136.686.443.093.293-.064.607-.35.7-.021.007-.05.014-.079.014-.307.086-.629-.1-.714-.407zm3.4 14.135c-.071-.336.136-.664.464-.743.336-.071.664.136.736.464.057.343-.171.657-.514.714-.293.051-.593-.135-.686-.435zm-85.71 24.385c.114-.343.493-.529.836-.407h.014c.357.114.557.486.45.843-.007.014-.014.036-.021.05-.114.343-.493.529-.836.407-.007 0-.014 0-.014 0-.365-.143-.551-.536-.429-.893zm15.635 5.5c.129-.357.529-.55.886-.421.364.129.55.529.421.886-.114.343-.493.529-.836.407 0 0-.014 0-.021-.007-.357-.093-.571-.457-.471-.821.006-.016.014-.03.021-.044zm30.955-57.062c-.171-.307-.05-.7.25-.864.021-.014.05-.021.071-.036.336-.157.743-.007.9.329.143.35.014.743-.307.936-.342.149-.756-.008-.914-.365zm7.157 14.971c-.157-.35.007-.764.357-.914.336-.157.743-.007.9.329.143.35.014.743-.307.936-.35.142-.764-.008-.95-.351zm14.45 29.92c-.186-.3-.093-.7.214-.886.029-.014.064-.036.093-.05.336-.157.743-.007.9.329.164.343.029.757-.307.936-.343.157-.743.007-.9-.329zm-64.219 42.391c-.036-.379.236-.714.614-.75h.036c.379.007.686.293.721.671.021.379-.264.7-.643.721-.007 0-.014 0-.021 0-.371.008-.685-.271-.707-.642zm16.557-.943c-.014-.371.264-.679.636-.7.379-.036.714.236.75.614v.036c.014.386-.293.7-.679.714-.365.007-.686-.286-.707-.664zm16.584-.907c-.036-.35.221-.664.571-.693.021-.007.036 0 .064 0 .357-.043.686.207.736.564 0 .014 0 .029.007.05.036.379-.236.714-.614.75-.379.036-.714-.236-.75-.614-.014-.021-.014-.043-.014-.057zm-12.606-58.497c.029-.093.071-.186.129-.264.243-.279.671-.3.95-.057.007.007.014.007.021.014.271.25.3.657.079.943l-.036.021c-.243.279-.671.3-.95.057-.007-.007-.014-.014-.014-.014-.201-.165-.272-.45-.179-.7zm12.578 11.77c-.279-.236-.321-.657-.086-.943 0 0 0-.007.007-.007.25-.286.679-.321.986-.1.271.271.3.7.064 1-.257.286-.693.308-.971.05zm12.342 11.057c-.279-.257-.3-.693-.043-.964.257-.279.693-.3.964-.043.279.257.3.693.043.964-.243.279-.671.3-.95.057-.007 0-.007-.007-.014-.014zm32.027-50.59c-.021-.379.264-.7.643-.721h.021c.371-.014.679.264.7.636.043.357-.207.686-.564.736-.014 0-.029 0-.05.007-.378.013-.714-.273-.75-.658zm.943 16.556c-.036-.35.221-.664.571-.693.021-.007.036 0 .064 0 .357-.043.686.207.729.564 0 .014 0 .029.007.05.029.386-.264.721-.643.757-.385.008-.714-.292-.728-.678zm.907 16.578c-.021-.379.271-.7.643-.721.371-.021.693.264.721.636.036.379-.236.714-.614.75-.014 0-.021 0-.036 0-.364-.001-.678-.287-.714-.665zm-121.73-43.162c-.457-.464-.471-1.2-.036-1.686.443-.479 1.186-.507 1.657-.071.464.457.479 1.207.036 1.686-.435.478-1.178.506-1.657.071zm20.842 19.384c-.479-.443-.507-1.186-.071-1.657.443-.479 1.186-.507 1.657-.071.479.443.507 1.186.071 1.657-.436.486-1.178.514-1.657.071zm20.799 19.414c-.464-.457-.479-1.207-.036-1.686.457-.457 1.2-.457 1.657-.007.457.457.457 1.2.007 1.657-.449.45-1.164.464-1.628.036zm41.641 38.805c-.464-.457-.479-1.207-.036-1.686.45-.464 1.186-.479 1.657-.029.457.443.479 1.171.043 1.643-.45.479-1.186.508-1.664.072zm25.349-128.137c-.007-.657.507-1.207 1.164-1.243.657 0 1.193.529 1.186 1.186 0 .636-.493 1.157-1.129 1.186-.643.014-1.186-.486-1.221-1.129zm1 28.435c-.014-.643.486-1.186 1.129-1.229.65-.029 1.2.479 1.229 1.129s-.479 1.2-1.129 1.229c-.644.013-1.186-.487-1.229-1.129zm1.007 28.427c-.014-.643.479-1.193 1.129-1.229.657-.007 1.207.507 1.243 1.164 0 .657-.536 1.186-1.193 1.186-.622.007-1.144-.485-1.179-1.121zm-77.925 69.904c.229-.614.914-.929 1.529-.7.614.229.929.914.7 1.529-.229.614-.914.929-1.529.7-.607-.244-.914-.915-.7-1.529zm26.663 9.992c.2-.614.864-.95 1.479-.75.014.007.021.007.029.007.607.236.914.914.7 1.529-.221.614-.893.936-1.507.707-.007 0-.014-.007-.014-.007-.601-.215-.908-.886-.687-1.486zm26.677 9.942c.221-.614.9-.929 1.514-.707.007 0 .014.007.014.007.571.221.85.85.643 1.421.021.036.021.036.007.093-.2.564-.807.871-1.386.714l-.114-.029c-.586-.2-.907-.843-.7-1.436.008-.02.015-.041.022-.063zm-33.034-119.237c-.243-.6.021-1.286.593-1.578.6-.243 1.279.029 1.543.614.279.579.036 1.271-.543 1.543-.007 0-.014.007-.021.007-.593.278-1.293.014-1.572-.586zm11.828 25.913c-.271-.6-.007-1.3.593-1.579.579-.264 1.257 0 1.521.579.279.586.036 1.279-.55 1.557-.586.279-1.279.036-1.557-.55 0 0-.007 0-.007-.007zm11.807 25.878c-.279-.579-.036-1.271.536-1.543.007 0 .014-.007.021-.007.586-.286 1.3-.05 1.593.543.286.586.05 1.3-.543 1.593-.586.286-1.3.05-1.593-.543 0-.008-.014-.029-.014-.043zm11.806 25.877c-.257-.593.021-1.286.614-1.536.579-.25 1.25.007 1.521.579.271.579.021 1.279-.557 1.557-.599.264-1.306 0-1.578-.6zm-51.512 41.898c.221-.6.871-.936 1.493-.771.614.221.936.893.736 1.507-.171.6-.793.943-1.393.771-.021-.007-.043-.014-.057-.021-.621-.193-.971-.843-.779-1.464 0-.008 0-.015 0-.022zm-3.142-116.13c-.279-.579-.021-1.279.557-1.557.579-.279 1.279-.021 1.557.557.264.564.036 1.243-.521 1.536-.593.292-1.3.049-1.593-.536zm12.828 25.284c-.286-.586-.05-1.3.543-1.593.571-.271 1.264-.05 1.571.507.279.593.05 1.307-.514 1.628-.6.273-1.3.03-1.6-.542zm12.828 25.278c-.286-.586-.05-1.3.543-1.593.571-.293 1.279-.071 1.571.507.293.571.071 1.279-.507 1.571-.579.293-1.286.086-1.607-.485zm12.863 25.263c-.307-.55-.107-1.229.443-1.536.021-.014.043-.021.064-.036.571-.293 1.271-.064 1.571.507.293.571.064 1.271-.507 1.564-.578.294-1.278.072-1.571-.499zm62.783-32.02c.221-.614.893-.936 1.507-.736.6.207.921.871.714 1.471-.171.6-.793.943-1.393.771-.021-.007-.043-.014-.057-.021-.621-.193-.971-.843-.779-1.464.008 0 .008-.007.008-.021zm-116.444 23.47c-.486-.421-.529-1.15-.114-1.636 0 0 0-.007.007-.007.414-.5 1.15-.571 1.65-.157.486.436.543 1.179.129 1.678-.43.479-1.165.536-1.672.122zm21.57 18.442c-.493-.414-.557-1.15-.143-1.65.414-.493 1.15-.557 1.65-.143.007 0 .007.007.014.014.479.436.536 1.171.129 1.678-.421.486-1.15.529-1.636.114zm21.506 18.435c-.486-.443-.514-1.193-.071-1.686.421-.464 1.136-.514 1.621-.121.5.429.55 1.179.129 1.678-.429.508-1.186.558-1.679.129zm31.313-106.038c-.036-.65.457-1.214 1.107-1.264.636-.043 1.193.436 1.236 1.071.071.629-.371 1.193-1.007 1.271-.014 0-.036.007-.05.007-.65.071-1.229-.407-1.293-1.05 0-.014 0-.029 0-.029v-.007h.007zm2.186 28.263c-.036-.65.457-1.214 1.107-1.264.643-.043 1.193.436 1.236 1.071.071.629-.371 1.193-1.007 1.271-.014 0-.036.007-.05.007-.65.064-1.229-.407-1.293-1.05 0-.007 0-.021 0-.021v-.014zm4.371 56.533c-.029-.65.464-1.207 1.107-1.264.643-.043 1.193.436 1.236 1.071.036.636-.429 1.193-1.05 1.271-.657.057-1.236-.421-1.293-1.071 0 .007-.007 0 0-.007zm-51.069 41.355c.25-.429.793-.579 1.221-.329.429.243.579.793.329 1.221-.236.414-.764.557-1.179.321-.007 0-.007 0-.014-.007-.414-.241-.572-.77-.357-1.206zm15.928-86.117c-.129-.471.157-.957.629-1.079.464-.121.943.15 1.079.607.136.45-.107.921-.557 1.064-.029.007-.057.014-.086.021-.458.116-.93-.156-1.065-.613zm5.485 20.62c-.121-.471.171-.964.643-1.086.479-.121.964.171 1.086.643.129.471-.15.95-.614 1.079-.014.007-.021.007-.029.007-.472.122-.95-.164-1.086-.643zm5.507 20.664c-.121-.471.171-.964.643-1.086.471-.121.964.171 1.086.643s-.171.964-.643 1.086c-.479.114-.95-.172-1.086-.643zm-45.341-11.643c-.286-.393-.207-.943.179-1.236.4-.264.929-.193 1.236.179.293.386.214.936-.171 1.236 0 0 0 0-.007.007-.364.293-.907.236-1.2-.129-.008-.021-.023-.042-.037-.057zm12.978 17.014c-.293-.4-.221-.957.157-1.271.386-.293.936-.214 1.236.171.3.364.25.907-.114 1.2-.007.007-.021.014-.029.021-.379.314-.929.264-1.243-.114zm13 16.963c-.293-.364-.236-.907.129-1.2.021-.014.036-.029.05-.036.357-.3.886-.25 1.186.107.007.014.021.021.029.036.293.4.221.957-.157 1.271-.386.293-.936.214-1.236-.171v-.007zm49.869-35.127c.086-.493.55-.829 1.036-.743.471.079.793.507.75.979-.064.493-.514.843-1.014.779-.494-.072-.837-.522-.772-1.015zm-50.998 41.556c-.129-.236-.05-.536.179-.671.236-.136.536-.057.671.179.136.236.057.536-.179.671-.014.007-.021.014-.036.021-.235.107-.506.014-.635-.2zm5.5 10.263c-.121-.221-.036-.507.186-.629 0 0 .007 0 .014-.007.207-.129.479-.064.6.143.014.021.021.043.036.057.136.221.079.514-.143.65-.007.007-.021.014-.036.014-.243.094-.529.001-.657-.228zm18.863-11.599c-.036-.257.15-.486.407-.521.271-.029.514.164.543.436.036.25-.136.486-.393.521 0 0-.007 0-.014 0-.271.035-.514-.165-.543-.436zm1.143 11.628c-.029-.271.164-.514.436-.543.271-.029.514.164.543.436s-.164.514-.436.543c-.272.028-.514-.172-.543-.436zm-26.385-33.556c-.036-.436.293-.821.736-.857.4-.057.771.221.821.614 0 .029.007.05.007.079.071.407-.207.793-.614.857-.021.007-.043.007-.064.007-.421.064-.821-.229-.879-.657-.007-.007-.007-.021-.007-.043zm2.029 19.235c-.071-.407.207-.793.614-.857.021-.007.043-.007.064-.007.421-.064.821.229.879.657 0 0 .007.036.007.057.043.436-.271.836-.707.886-.421.043-.807-.264-.85-.686 0-.014 0-.029 0-.029zm1.978 19.214c-.036-.436.279-.829.707-.886.429-.057.829.25.886.679 0 0 .007.021 0 .029.043.436-.271.836-.707.886-.436.042-.828-.266-.886-.708zm28.749-6.057c-.107-.186-.136-.407-.071-.621.136-.421.579-.657 1.007-.543.179.071.336.193.443.357.021.036.021.036.007.093.114.164.143.371.093.564-.136.421-.579.657-1.007.543-.201-.079-.365-.215-.472-.393z" fill="#fff"/><path d="m151.843 149.921c-1.714-1.093-3.486-2.221-5.214-3.436-18.735-13.107-30.977-35.434-31.956-58.276s9.314-46.134 26.856-60.79l2.75 3.293c-16.542 13.821-26.249 35.784-25.327 57.319s12.464 42.591 30.127 54.947c1.657 1.157 3.393 2.264 5.064 3.336z" fill="#d62929"/><g fill="#23286b"><path d="m140.086 48.855 18.906-32.284-39.012 15.642 18.885 1.185z"/><path d="m198.541 149.214 48.462 2.436-41.341-35.527 9.928 22.435z"/><path d="m148.843 158.5c-.707 0-1.407-.257-1.957-.779-1.15-1.086-1.2-2.893-.121-4.036 20.949-22.199 56.833-27.713 83.482-12.835 1.379.771 1.871 2.507 1.1 3.886s-2.507 1.871-3.886 1.1c-24.027-13.421-57.647-8.25-76.539 11.771-.565.593-1.322.893-2.079.893z"/></g><circle cx="150" cy="150" fill="#d62929" r="11.207"/></g><g clip-path="url(#b)" transform="matrix(2.895 0 0 2.9 39 976)"><path d="m104.412 102.483h95.588v7.506h-95.588z" fill="#89b3f4"/><path d="m129.342 103.679-71.819 3.22-50.761-106.767 71.759-.132z" fill="#89b3f4"/><path d="m58.192 106.779-6.793 3.221-51.399-106.779 6.793-3.221z" fill="#a1c3fc"/><path d="m51.428 102.483h95.159v7.506h-95.159z" fill="#a1c3fc"/><path d="m119.193 92.881-63.035.253-41.281-86.101 62.245-.113z" fill="#1c2868"/><path d="m42.077 16.451h9.08v9.062h-9.08z" fill="#56598d"/><path d="m40.554 18.73h2.484v2.479h-2.484z" fill="#888baf"/><path d="m80.805 60.118h4.914v4.904h-4.914z" fill="#e94a47"/><g fill="#1d72d8"><path d="m86.087 65.796h4.914v4.904h-4.914z"/><path d="m154.696 103.637h10.85v4.88h-10.85z"/><path d="m169.396 103.637h7.494v4.88h-7.494z"/></g></g><g clip-path="url(#c)" transform="matrix(2.045 0 0 2.04273504 682 578)"><path d="m291.478 83.353c-1.006-.575-1.181 1.655-1.353 2.678-1.151 6.823-2.099 13.783-4.892 20.114-.555 1.257-1.184 2.702-.593 3.942.225.47.602.844.966 1.216 3.605 3.694 7.492 6.349 9.406 11.143 1.506-4.781 2.846-8.573 3.608-13.528.902-5.865 1.271-7.596 1.443-13.528.033-1.137-.861-5.518-1.29-6.571-.432-1.052-5.433-4.21-7.295-5.466z" fill="#1d72d8"/><path d="m292.04 103.153c4.771-2.006 8.922-6.811 8.053-11.914-.123-.722-.358-1.457-.869-1.981-.581-.596-1.426-.835-2.226-1.069-13.353-3.893-25.23-12.649-32.896-24.254-2.438 8.062-4.169 16.336-5.167 24.7 1.877 2.372 5.187 2.879 8.116 3.639 7.923 2.056 14.717 7.016 22.01 10.733.471.24.963.48 1.491.505.512.025 1.013-.16 1.488-.359z" fill="url(#e)"/><path d="m279.614 78.351c-.295-7.497-2.253-15.668-8.33-20.069-3.857-2.793-8.873-3.619-13.614-3.169-4.742.451-9.286 2.074-13.722 3.806-5.914 2.31-12.316 5.414-14.569 11.35-1.514 3.991-.786 8.487.55 12.541 2.454 7.447 6.98 14.284 13.234 19.014 1.64 1.24 3.404 2.325 5.251 3.241 2.024 2.24 2.837 2.867 4.986 5.255 1.965 2.183 2.555-.69 3.321-2.456 2.799.527 5.664.669 8.502.36 2.818-.307 5.68-1.086 7.88-2.874 3.14-2.552 4.438-6.708 5.228-10.675 1.065-5.366 1.497-10.858 1.283-16.324z" fill="url(#f)"/><path d="m298.586 151.546c-1.393-8.847-4.061-25.438-3.099-34.342s4.083-10.404 11.094-15.978c3.944-3.136 10.051-4.885 13.798-1.517 2.623 2.358 5.646 8.035 5.84 11.557 1.946 35.197 8.598 65.955-5.227 103.83-4.339.265-8.746-.707-12.571-2.773-.647-.35-1.294-.744-1.742-1.328-.593-.774-.762-1.782-.914-2.745-2.001-12.713-2.724-22.168-4.725-34.881-.981-6.237-1.472-15.59-2.454-21.823z" fill="#89b3f4"/><path d="m212.631 157.499c3.028-3.158 24.019-4.613 34.799-3.551 4.719.465 9.542-.399 14.194.524 4.719.935 8.875 3.628 12.9 6.265 7.874 5.16 12.012 16.134 19.886 21.293 2.93 1.92 9.561 12.264 12.989 12.987-1.841 5.467-18.363-3.062-20.204 2.406-8.992-11.491-11.753-13.207-21.361-24.191-3.017-3.45-5.242-7.821-9.26-10.026-2.719-1.492-5.905-1.781-8.967-2.271-11.605-1.857-39.955 1.756-34.976-3.436z" fill="url(#g)"/><path d="m298.912 207.765c3.163 3.528 6.372 7.096 10.325 9.708s7.944.562 11.818-2.665c2.97-10.974-5.66-18.63-15.157-27.317s-22.032-18.199-29.221-25.171c-.72 4.825-5.449 10.232-9.995 12.001 10.896 13.691 21.911 21.935 32.23 33.444z" fill="#89b3f4"/><path d="m79.98 318.151c10.186-1.949 46.18-.006 46.18-.006s4.044 19.725 3.942 32.712c-15.192.02-30.384.041-45.576.061-25.533.034-31.572.275-58.531-.275-.574-6.059 11.515-17.188 33.553-22.386 4.87-1.147 15.517-9.165 20.432-10.106z" fill="#f7931e"/><path d="m54.004 318.151c10.186-1.949 46.18-.006 46.18-.006s4.044 19.725 3.942 32.712c-15.192.02-30.384.041-45.576.061-25.533.034-31.572.275-58.531-.275-.574-6.059 11.515-17.188 33.553-22.386 4.87-1.147 15.516-9.165 20.432-10.106z" fill="#fbb03b"/><path d="m202.759 232.999c30.418 16.67 54.742 44.718 87.929 54.806 24.9 7.568 52.951 3.639 75.078-10.059 11.391-7.051 21.7-17.346 24.556-30.433.284-1.3.485-2.69.01-3.932-.581-1.521-2.041-2.497-3.424-3.36-11.176-6.974-22.849-13.153-34.899-18.475-6.024 2.027-7.589 10.989-13.712 12.689-3.569.991-7.215-.94-10.503-2.645-21.092-10.94-104.983-85.804-127.669-69.281-58.448 42.566-89.836 88.381-136.017 156.202 18.401 1.082 62.416.36 62.416.36s9.882-8.202 21.647-21.645c10.102-11.543 8.067-25.408 15.875-28.86s21.4-16.164 23.838-24.344c1.472-4.939 2.042-11.534 7.01-12.912 2.665-.737 5.437.558 7.865 1.889z" fill="#151a4f"/><path d="m365.066 143.602c2.851-.12 5.868.159 8.221 1.774 1.941 1.333 3.211 3.42 4.365 5.472 15.873 28.179 21.345 62.064 15.152 93.806-.48 2.46-1.077 5.011-2.687 6.933-1.736 2.071-4.393 3.105-6.978 3.895-7.887 2.409-16.234 3.299-24.452 2.608-4.895-.412-10.32-1.759-12.869-5.959-2.597-4.281-1.195-9.762.295-14.542 4.064-13.036 8.295-26.361 7.749-40.005-.547-13.643-6.892-27.916-19.085-34.063 5.514-11.432 17.61-19.386 30.289-19.919z" fill="url(#h)"/><path d="m356.306 301.582c-6.587 2.67-13.855 3.178-20.957 2.936-24.242-.83-48.096-10.335-66.266-26.402-22.977-20.318-43.387-51.578-72.361-61.641-19.534-5.978-12.905 19.467-33.087 40.657-7.972 8.37-19.708 9.148-26.31 17.139-7.574 9.168-2.472 4.911-8.77 20.328-1.838 4.499-25.453 23.838-28.369 23.912-20.467.522-26.079.8-47.985.263 20.925-49.324 69.178-98.712 105.172-150.548 1.999-2.879 5.123-5.036 8.5-5.979 2.279-.636 4.693-.481 7.05-.289 56.463 4.57 111.381 26.687 155.25 62.522 3.687 3.011 7.367 4.449 10.012 9.258 1.942 3.533.427 10.206-.481 16.114-.908 5.907-1.625 9.07 4.089 10.822-2.256-10.424-1.202-27.657-1.202-27.657s7.273-8.433 10.866-13.728c14.142 7.502 29.918 8.1 44.695 1.943 0 22.847-5.399 34.746-12.989 50.596-5.906 12.336-14.179 24.614-26.857 29.754z" fill="url(#i)"/><path d="m294.01 90.762c3.119-4.203 18.367-1.457 24.545 2.034 23.033 13.015 39.903 27.451 54.82 49.301 5.044 7.387 8.707 13.665 14.14 27.036-12.155.792-15.656 17.227-48.849 25.403-6.254-21.164-12.286-32.901-26.458-45.214-10.647-9.249-11.812-11.343-16.356-28.379-2.885-10.823-6.272-18.451-1.842-30.181z" fill="url(#j)"/><path d="m312.185 140.427c-5.13 25.226-7.555 51.002-7.22 76.742-6.349-.631-12.474-3.339-17.214-7.609-.72 1.443-1.441 2.887-2.161 4.33" fill="none" stroke="#000" stroke-miterlimit="10"/><path d="m274.346 82.231c4.952-1.729 10.166-5.129 10.693-10.347.467-4.622-2.926-8.643-6.097-12.04-3.366-3.609-6.731-7.218-10.097-10.826-.715-.768-1.463-1.556-2.436-1.952-1.383-.562-2.951-.224-4.388.18-7.222 2.031-13.922 5.551-20.56 9.044-2.425 1.276-4.875 2.57-6.942 4.369-5.785 5.034-8.21 14.381-4.93 21.313 6.122-2.306 13.353.188 19.731 1.648 8.252 1.888 17.033 1.402 25.026-1.389z" fill="#428dfc"/><path d="m263.224 76.507c-12.082 0-23.963-2.11-34.745-6.268-.451-.174-.674-.68-.5-1.129.173-.451.68-.673 1.128-.5 16.937 6.532 36.652 7.915 55.514 3.897.468-.102.934.2 1.037.672.1.473-.2.935-.673 1.036-7.195 1.533-14.514 2.292-21.761 2.292z" fill="#e94a47"/><path d="m245.744 77.084c-6.635 0-12.803-.977-18.485-2.935-.455-.157-.698-.654-.541-1.11.157-.457.653-.698 1.11-.542 15.331 5.283 34.423 3.19 56.738-6.22.443-.187.957.02 1.145.465.187.444-.021.957-.465 1.144-14.529 6.128-27.744 9.198-39.502 9.198z" fill="#e94a47"/><path d="m265.117 45.506c-3.648-8.878.117-21.758 6.784-28.663 6.667-6.906 16.387-10.28 25.973-10.788 3.017-.16 6.164-.032 8.858 1.334 2.694 1.367 4.812 4.255 4.443 7.254-3.649-1.864-8.289-.754-11.473 1.827-3.183 2.579-5.139 6.369-6.597 10.197-1.165 3.06-2.112 6.294-4.171 8.842-2.302 2.846-5.728 4.505-9.071 5.994-4.32 1.925-8.971 6.046-13.142 3.817-.446 7.381-1.134 1.6-1.604.186z" fill="#428dfc"/><path d="m264.961 44.458c-.208 0-.393-.151-.429-.364-1.279-7.457-1.372-15.035-.28-22.526 1.041-7.142 3.037-12.211 6.28-15.953 4.209-4.855 10.728-6.848 15.853-4.844.225.088.336.341.248.566s-.342.335-.565.248c-4.788-1.872-10.903.021-14.875 4.603-3.129 3.609-5.06 8.536-6.076 15.506-1.079 7.4-.986 14.887.277 22.252.04.237-.12.463-.357.504-.026.006-.052.008-.076.008z" fill="#428dfc"/><path d="m247.151 108.283c-1.924 0-4.034-.631-5.943-1.775-4.351-2.611-6.367-6.978-4.589-9.942.917-1.528 2.737-2.403 4.992-2.403 1.923 0 4.034.631 5.942 1.775 4.352 2.611 6.367 6.978 4.589 9.942-.917 1.527-2.737 2.403-4.991 2.403zm-5.541-12.375c-1.627 0-2.901.567-3.495 1.556-1.232 2.054.596 5.51 3.99 7.546 1.64.984 3.431 1.526 5.044 1.526 1.627 0 2.9-.567 3.494-1.556 1.232-2.054-.596-5.51-3.99-7.546-1.64-.983-3.431-1.526-5.043-1.526z" fill="#23286b"/><path d="m260.255 41.579h10.102v10.1h-10.102z" fill="#e94a47"/><path d="m304.751 302.098h94.526v22.367h-94.526z" fill="#d62929"/><path d="m285.991 324.465h94.526v22.367h-94.526z" fill="#428dfc"/><path d="m311.246 306.787h88.754v12.987h-88.754z" fill="#d6d7d8"/><path d="m313.41 329.846h33.193v10.822h-33.193z" fill="#eee"/><path d="m173.906 164.321 37.416-16.202s83.902 28.515 83.335 30.459c-.566 1.944-22.109 22.683-24.377 23.978s-96.374-38.235-96.374-38.235z" fill="url(#k)"/><g fill="#23286b"><path d="m195.236 167.924c-.159 0-.312-.087-.389-.237-.109-.215-.024-.477.191-.587l21.897-11.18c.215-.108.477-.024.587.191s.024.477-.191.587l-21.897 11.18c-.063.031-.131.046-.198.046z"/><path d="m204.59 173.027c-.153 0-.301-.081-.382-.223-.118-.21-.042-.477.168-.595l21.684-12.152c.209-.117.476-.043.595.166.118.21.042.477-.168.595l-21.684 12.152c-.067.039-.141.057-.213.057z"/><path d="m220.959 181.289c-.144 0-.284-.072-.369-.201-.129-.204-.069-.473.134-.602l24.447-15.553c.201-.126.472-.07.602.134.129.204.069.473-.134.602l-24.447 15.553c-.072.046-.153.067-.233.067z"/><path d="m261.35 191.741c-.134 0-.267-.061-.352-.178-.142-.195-.101-.468.093-.611l19.557-14.338c.193-.143.468-.102.611.093.142.195.101.468-.093.611l-19.557 14.338c-.077.057-.168.085-.259.085z"/><path d="m246.256 184.693c-.144 0-.284-.072-.369-.201-.129-.202-.07-.473.134-.602l20.197-12.879c.2-.129.473-.071.602.133s.07.473-.134.602l-20.197 12.88c-.071.044-.151.067-.233.067z"/></g><path d="m255.324 159.062c-2.522.549-9.199 2.525-11.802 3.897-2.387 1.258-5.883 3.512-6.056 6.204-.231 3.582 5.827.191 9.102-1.027 6.32-2.349 13.677-3.227 23.503-1.585 2.221.371 5.21-1.015 3.895-1.795-1.316-.78-2.225-1.905-4.75-3.168-2.978-1.488-10.539-3.256-13.892-2.526z" fill="#ffbeb6"/><path d="m285.588 201.882c-7.905 0-34.373-5.415-48.51-11.856-3.849-1.754-13.049-12.791-14.993-13.836-6.254-3.361-17.617-7.597-18.065-6.643-4.311 7.185 7.715 5.129 12.936 11.856-9.657-3.43-17.287-6.893-26.944-10.323 1.143 9.211 7.867 6.656 11.133 11.4.643.933 5.553 16.394 6.549 16.933 1.244.672 2.75.525 4.157.385 7.66-.76 15.398-.716 23.049.12 4.929.539 35.093 16.58 39.907 17.773.211-3.026 9.721-12.965 10.781-15.809z" fill="url(#l)"/><path d="m320.144 110.578c-2.459-6.117-11.089-11.884-17.5-10.349-6.969 1.668-7.708 10.337-7.637 17.503.121 12.226 1.141 28.265 1.774 37.185.934 13.185-1.843 26.189-4.32 39.173-.443 2.394-1.287 4.407-2.379 6.121-18.018.991-36.293-2.718-52.445-10.776-3.591 5.774-5.697 12.462-6.063 19.251-.074 1.373-.049 2.852.737 3.981.89 1.278 2.511 1.778 4.013 2.187 23.504 6.389 44.031 10.969 68.311 12.896.735.066 1.373-.301 1.927-.974.445-.244.796-.581 1.032-1.032 5.38-10.304 8.884-25.033 11.26-37.876 2.605-14.089 3.678-26.987 5.475-41.203 1.479-11.716.269-25.005-4.185-36.087z" fill="#a1c3fc"/><g fill="#eee"><path d="m311.246 316.609h88.754v1.637h-88.754z"/><path d="m311.246 313.335h88.754v1.637h-88.754z"/><path d="m311.246 310.061h88.754v1.637h-88.754z"/><path d="m311.246 306.787h88.754v1.637h-88.754z"/></g><circle cx="362.216" cy="335.679" fill="#23286b" r="6.22"/><path d="m300.169 122.209c.117-.108.121-.221.013-.338s-.221-.121-.338-.013-.121.221-.013.338.225.008.338.013zm7.381-22.726c.112.004.23-.104.234-.216s-.104-.23-.216-.233c-.112-.004-.23.104-.234.216-.121.22.099.341.216.233zm-4.474 11.221c.112.004.225.008.342-.101.004-.112.008-.225-.101-.342-.112-.004-.225-.008-.342.101-.12.221-.012.337.101.342zm24.555 18.948c.221.121.451.017.572-.205.121-.221.017-.451-.205-.571-.221-.121-.451-.017-.572.205-.233.217-.02.563.205.571zm-10.001-3.978c.221.121.451.017.572-.205.121-.221.017-.451-.205-.571-.221-.121-.451-.017-.572.205-.119.22-.015.449.205.571zm-9.995-4.091c.221.121.451.017.572-.205.121-.221.017-.451-.205-.571-.221-.121-.451-.017-.572.205-.122.221-.018.45.205.571zm3.611 24.261c.121-.221.129-.446.025-.675-.221-.121-.446-.129-.675-.025-.121.221-.129.446-.021.563.211.346.437.354.671.137zm-7.728-7.502c.121-.221.129-.446.025-.675-.221-.121-.446-.129-.675-.025-.121.221-.129.446-.021.563.217.233.554.246.671.137zm23.226-30.369c.225.008.458-.209.468-.434.008-.225-.209-.458-.434-.468-.225-.008-.458.209-.468.434-.01.226.208.459.434.468zm-10.828.049c.225.008.458-.209.468-.434.008-.225-.209-.458-.434-.468-.225-.008-.458.209-.468.434-.007.227.21.46.434.468zm-10.714.054c.225.008.458-.209.468-.434.008-.225-.209-.458-.434-.468-.225-.008-.458.209-.468.434-.012.339.21.46.434.468zm-1.555 45.041c.117-.108.242-.442.021-.563-.108-.117-.442-.242-.563-.021-.117.108-.242.442-.021.563.104.23.33.237.563.021zm18.35-35.737c.225.008.455-.096.462-.321.008-.225-.101-.342-.321-.462-.225-.008-.455.096-.462.321-.008.224.096.453.321.462zm-9.554-.805c.225.008.455-.096.462-.321.008-.225-.101-.342-.321-.462-.225-.008-.455.096-.462.321-.01.224.095.453.321.462zm-9.551-.917c.225.008.455-.096.462-.321.008-.225-.101-.342-.321-.462-.225-.008-.455.096-.462.321-.012.337.096.453.321.462zm8.621 19.937c.221.121.451.017.572-.205.121-.221.017-.451-.205-.571-.221-.121-.451-.017-.572.205-.121.221-.02.562.205.571zm-8.52-4.375c.221.121.451.017.567-.091.121-.221.017-.451-.205-.571-.221-.121-.451-.017-.572.205-.116.106-.012.336.21.457zm12.352-32.125c.23-.104.346-.213.242-.442-.104-.23-.326-.35-.442-.242-.23.104-.35.325-.246.554 0 0 .221.121.446.13zm-9.125 2.819c.23-.104.35-.325.246-.554-.104-.23-.326-.35-.555-.246-.23.104-.35.325-.242.442.101.341.322.462.551.358-.112-.005 0 0 0 0zm6.998 54.601c.221.121.451.017.572-.205.121-.221.017-.451-.205-.571-.221-.121-.451-.017-.572.205-.12.221-.015.45.205.571zm-9.851-4.987c.221.121.451.017.572-.205.121-.221.017-.451-.205-.571-.221-.121-.451-.017-.572.205-.115.109-.015.45.205.571zm13.943-41.538c.23-.104.35-.325.246-.554-.104-.23-.326-.35-.555-.246-.23.104-.35.325-.246.554-.008.226.325.351.555.246zm-10.615 3.441c.23-.104.35-.325.246-.554-.104-.23-.326-.35-.555-.246-.23.104-.35.325-.246.554.109.117.326.35.555.246zm7.92 20.587c.225.008.458-.209.468-.434.008-.225-.209-.458-.434-.468-.225-.008-.458.209-.468.434-.007.226.209.461.434.468zm-11.018-.859c.225.008.458-.209.468-.434.008-.225-.209-.458-.434-.468-.225-.008-.458.209-.468.434-.008.226.096.456.434.468zm12.319 8.349c.225.008.458-.209.468-.434.008-.225-.209-.458-.434-.468s-.455.096-.468.434c-.007.226.209.46.434.468zm-11.002-1.31c.225.008.458-.209.468-.434.008-.225-.096-.455-.434-.468-.225-.008-.458.209-.58.429.105.231.321.464.546.473zm3.809-20.604c.23-.104.35-.325.358-.55-.104-.23-.324-.35-.55-.358-.23.104-.35.325-.358.55-.009.225.324.35.55.358z" fill="#fff"/><path d="m291.525 83.386c1.67 5.281-4.048 21.986-4.171 22.585-.118.577 8.006 18.849 8.006 18.849s3.276-10.51 4.298-15.816c1.238-6.425 3.465-13.942.866-19.947-.169-.388-8.039-4.957-8.999-5.671z" fill="#428dfc"/></g></svg>