<svg height="1200" viewBox="0 0 1600 1200" width="1600" xmlns="http://www.w3.org/2000/svg" xmlns:xlink="http://www.w3.org/1999/xlink"><clipPath id="a"><path d="m0 0h800v600h-800z"/></clipPath><linearGradient id="b" gradientTransform="matrix(.1 0 0 -.1 0 18)" gradientUnits="userSpaceOnUse" x1="861.8562" x2="3464.1475" y1="-2476.7854" y2="-2476.7854"><stop offset="0" stop-color="#e8f1fe"/><stop offset="1" stop-color="#c1d7f8"/></linearGradient><linearGradient id="c" gradientTransform="matrix(.1 0 0 -.1 0 18)" gradientUnits="userSpaceOnUse" x1="3785.9087" x2="7734.5659" y1="-3135.6907" y2="-3135.6907"><stop offset="0" stop-color="#d3e4fd"/><stop offset="1" stop-color="#aacaf0"/></linearGradient><clipPath id="d"><path d="m0 0h328v198h-328z"/></clipPath><linearGradient id="e" gradientUnits="userSpaceOnUse" x1="2.804" x2="323.629" y1="17.9785" y2="17.9785"><stop offset="0" stop-color="#b0cdfc"/><stop offset="1" stop-color="#81aef2"/></linearGradient><linearGradient id="f"><stop offset="0" stop-color="#eee"/><stop offset="1" stop-color="#d6d7d8"/></linearGradient><linearGradient id="g" gradientUnits="userSpaceOnUse" x1="5.3333" x2="64.8333" xlink:href="#f" y1="59" y2="59"/><linearGradient id="h" gradientUnits="userSpaceOnUse" x1="113" x2="172.5" xlink:href="#f" y1="59" y2="59"/><linearGradient id="i" gradientUnits="userSpaceOnUse" x1="220.6667" x2="280.1667" xlink:href="#f" y1="59" y2="59"/><clipPath id="j"><path d="m0 0h65.482v56.031h-65.482z"/></clipPath><clipPath id="k"><path d="m0 0h500v310h-500z"/></clipPath><linearGradient id="l" gradientUnits="userSpaceOnUse" x1="9.006942" x2="39.830501" y1="216.919844" y2="216.919844"><stop offset="0" stop-color="#ffbeb6"/><stop offset="1" stop-color="#f2a19c"/></linearGradient><linearGradient id="m"><stop offset="0" stop-color="#23286b"/><stop offset="1" stop-color="#151a4f"/></linearGradient><linearGradient id="n" gradientUnits="userSpaceOnUse" x1="172.474011" x2="468.919055" xlink:href="#m" y1="229.233324" y2="229.233324"/><linearGradient id="o"><stop offset="0" stop-color="#a1c3fc"/><stop offset="1" stop-color="#78a9ef"/></linearGradient><linearGradient id="p" gradientUnits="userSpaceOnUse" x1="92.174931" x2="102.706458" xlink:href="#o" y1="138.129026" y2="196.48586"/><linearGradient id="q" gradientUnits="userSpaceOnUse" x1="131.559843" x2="245.469105" xlink:href="#o" y1="152.919994" y2="152.919994"/><linearGradient id="r" gradientTransform="matrix(-.1333 0 0 .1333 -357.3899 -163.4508)" gradientUnits="userSpaceOnUse" x1="-6145.6587" x2="-5519.2339" y1="3286.9888" y2="3286.9888"><stop offset="0" stop-color="#428dfc"/><stop offset="1" stop-color="#1d72d8"/></linearGradient><linearGradient id="s" gradientUnits="userSpaceOnUse" x1="378.04226" x2="350.180214" xlink:href="#m" y1="245.31349" y2="161.275945"/><linearGradient id="t" gradientUnits="userSpaceOnUse" x1="210.881034" x2="247.240795" xlink:href="#o" y1="165.288221" y2="67.760649"/><clipPath id="u"><path d="m0 0h15.2v71.8h-15.2z"/></clipPath><clipPath id="v"><path d="m0 0h15.2v71.8h-15.2z"/></clipPath><g clip-path="url(#a)" transform="matrix(1.335 0 0 1.335 277 142)"><ellipse cx="216.3" cy="265.679" fill="url(#b)" rx="130.115" ry="132.422"/><g fill="#b9d5eb" opacity=".69"><path d="m687.917 146.204-16.408-16.28 16.408-16.409 2.692 2.692-13.588 13.717 13.588 13.588z"/><path d="m675.739 146.204-16.28-16.28 16.28-16.409 2.82 2.692-13.716 13.717 13.716 13.588z"/></g><g fill="#7cb3ea" opacity=".69"><path d="m15.552 285.805-2.692-2.821 13.588-13.588-13.588-13.716 2.692-2.692 16.28 16.408z"/><path d="m27.73 285.805-2.82-2.821 13.717-13.588-13.717-13.716 2.82-2.692 16.281 16.408z"/></g><g fill="#aacaf0"><path d="m713.684 499.628 12.435 6.41c1.282.385 2.564.641 3.846.897l-19.357-9.999c1.025 1.026 2.05 1.923 3.076 2.692z" opacity=".45"/><path d="m707.018 493.091 28.202 14.486h2.051l-31.407-16.152c.385.512.769 1.025 1.154 1.666z" opacity=".45"/><path d="m704.326 488.476 36.663 18.844c.513-.128 1.026-.128 1.666-.256l-38.842-19.998c.128.512.257.897.513 1.41z" opacity=".45"/><path d="m703.429 484.758 42.175 21.664c.513-.128.897-.256 1.41-.385l-43.585-22.434c-.129.386-.129.771 0 1.155z" opacity=".45"/><path d="m703.557 481.682 46.021 23.587c.385-.128.769-.256 1.154-.513l-46.918-24.1c-.257.256-.257.641-.257 1.026z" opacity=".45"/><path d="m704.198 478.733 48.713 25.126c.385-.128.641-.385 1.026-.513l-49.482-25.51c-.129.256-.257.641-.257.897z" opacity=".45"/><path d="m705.095 476.041 50.764 26.151c.256-.128.641-.385.897-.641l-51.405-26.407c.001.384-.128.641-.256.897z" opacity=".45"/><path d="m706.249 473.477 52.302 26.92c.256-.256.641-.385.897-.641l-52.687-27.177c-.128.257-.256.642-.512.898z" opacity=".45"/><path d="m708.3 470.913c-.128.128-.128.128-.256.256l53.071 27.305c.256-.256.513-.385.769-.641l-52.943-27.177c-.256.001-.513.129-.641.257z" opacity=".45"/><path d="m713.043 470.144c-.256 0-.385 0-.641 0l50.892 26.151c.256-.256.385-.513.641-.769l-49.61-25.51c-.513.128-.897.128-1.282.128z" opacity=".45"/><path d="m717.402 469.632 47.687 24.485c.256-.256.385-.513.513-.769l-47.046-24.1c-.257.127-.642.255-1.154.384z" opacity=".45"/><path d="m720.991 468.221 45.764 23.587c.128-.256.385-.513.513-.769l-45.252-23.203c-.256.001-.641.257-1.025.385z" opacity=".45"/><path d="m723.939 466.555 44.354 22.818c.128-.256.256-.513.385-.897l-43.842-22.562c-.384.128-.64.385-.897.641z" opacity=".45"/><path d="m726.247 464.504 43.072 22.177c.128-.256.256-.641.385-.897l-42.816-22.049c-.128.384-.385.512-.641.769z" opacity=".45"/><path d="m728.17 462.325 42.047 21.664c.128-.256.128-.641.256-.897l-41.79-21.536c-.129.256-.257.512-.513.769z" opacity=".45"/><path d="m729.708 459.889 41.15 21.152c0-.385.128-.641.128-1.026l-40.765-21.023c-.129.384-.257.641-.513.897z" opacity=".45"/><path d="m771.114 476.938-39.868-20.511c-.128.256-.256.641-.256.897l40.124 20.639c0-.384 0-.64 0-1.025z" opacity=".45"/><path d="m770.729 473.477-38.842-19.998c0 .385-.128.641-.128 1.026l39.227 20.126c-.129-.385-.129-.769-.257-1.154z" opacity=".45"/><path d="m769.704 469.76-37.047-19.101c-.128.256-.256.513-.385.897l37.817 19.485c-.001-.384-.129-.769-.385-1.281z" opacity=".45"/><path d="m767.781 465.786c-.128-.128-.128-.256-.256-.256l-32.817-16.921c-.385.128-.641.385-.897.641l34.612 17.819c-.129-.386-.386-.899-.642-1.283z" opacity=".45"/><path d="m761.756 459.248-21.152-10.896c-.897-.256-1.923-.385-2.82-.385l26.792 13.845c-.897-.898-1.795-1.667-2.82-2.564z" opacity=".45"/></g><path d="m728.811 161.715c-2.307-2.948-4.615-5.769-6.922-8.589l-343.298 263.05c2.051 3.077 4.23 6.025 6.538 8.973 12.691 16.537 27.177 30.638 43.072 42.431l4.358-5.256 168.572-40.252c-.128 2.179-.256 4.358-.385 6.538l-170.239 40.637c1.282.897 2.692 1.923 3.974 2.82l165.88-39.611c-.128 2.179-.513 3.846-.769 6.153l-158.572 37.817c.769.513 1.666 1.026 2.564 1.538l155.625-37.176c-.513 2.307-1.026 5.128-1.667 7.435l-145.498 34.74c1.41.769 2.82 1.538 4.102 2.179l140.626-33.586c-.641 1.795-1.282 4.102-1.923 6.41l-130.627 31.151c1.538.769 3.077 1.41 4.615 2.179l124.602-29.74c-.769 2.307-1.538 4.615-2.564 6.538l-112.937 26.92 6.153 2.307 104.989-25.126c-1.282 2.436-2.564 4.871-3.974 7.435l-89.606 21.408c1.41.385 2.692.769 4.102 1.154l84.094-19.998c-1.41 3.077-3.205 5.64-4.871 8.204l-64.48 15.383c2.564.513 5.128 1.026 7.692 1.41l53.456-12.691c-.641 1.282-1.41 1.923-2.179 2.82-1.282 1.538-2.436 3.077-3.846 4.487l-31.151 7.435c4.23.385 8.461.641 12.691.769l14.101-3.333c-1.154 1.154-2.307 2.307-3.461 3.333 44.483-.897 89.093-15.511 127.038-44.611 94.862-72.812 112.809-208.695 40.125-303.685zm-178.828 156.009c.128.128.385.385.513.385l-1.026.256zm-4.23 5.256 8.332-2.051c.385.513.641.385.897.641 1.795 1.41 3.461 3.077 5.128 4.359l-21.023 4.999zm-10.256 12.691 27.818-6.666c1.666 1.795 3.077 3.077 4.615 4.743l-38.329 9.102zm-8.076 9.999 42.175-9.999c1.538 1.795 3.077 3.589 4.615 5.384l-53.328 12.691zm-10.255 12.691 59.353-14.229c1.282 1.795 2.307 3.205 3.589 5.128l-68.839 16.409zm-9.614 11.922 74.608-17.819c1.026 1.41 2.051 3.333 2.948 4.615l-83.453 19.87zm-8.845 10.64 87.811-21.023c1.026 1.923 2.179 4.358 3.205 6.281l-98.451 23.459zm-9.615 11.537 101.528-24.228c1.026 2.436 1.795 4.358 2.564 6.41l-110.629 26.279zm-10.255 12.563 115.372-27.561c.641 2.051 1.282 3.974 1.795 5.512l-123.064 29.356zm-8.076 9.999 125.884-29.997c.641 2.564 1.154 4.615 1.795 7.051l-134.858 32.176zm-10.384 12.691 138.447-33.073c.385 2.051.769 4.102 1.026 5.64l-145.241 34.612zm-9.486 12.05 149.343-35.637c.256 2.051.385 3.718.513 5.769l-155.753 37.175zm-16.152 19.87 7.307-9.23 158.958-37.945c.128 2.692.128 4.743.256 7.435z" fill="url(#c)" opacity=".7"/><path d="m471.658 543.342 65.25-15.639c4.871-2.82 9.743-5.512 14.229-9.358l-96.528 23.075c5.768 1.409 11.28 1.665 17.049 1.922z" fill="#ebf2fe"/><path d="m550.88 509.884-114.09 27.176c3.718 1.282 7.435 2.564 11.281 3.205l108.322-25.895c1.795-1.41 3.461-2.948 5.128-4.615-3.462.257-7.051.257-10.641.129z" fill="#ebf2fe"/><path d="m564.982 506.551-14.101 3.333c3.589.128 7.051.128 10.64 0 1.153-1.026 2.307-2.18 3.461-3.333z" fill="#f0f7fe"/><path d="m394.23 509.115-1.666 2.051c1.282 1.154 2.564 2.564 3.846 3.333l81.402-19.485c-3.077-1.154-6.025-2.436-8.973-3.718z" fill="#ebf2fe"/><path d="m593.44 461.555-124.602 29.741c2.948 1.282 6.025 2.564 8.973 3.718l112.937-26.92c1.154-1.795 1.923-4.231 2.692-6.539z" fill="#f0f7fe"/><path d="m414.228 485.015-7.435 8.717 45.38-10.768c-2.82-1.538-5.64-3.205-8.461-4.999z" fill="#ebf2fe"/><path d="m599.209 440.917-155.625 37.176c2.82 1.666 5.64 3.333 8.461 4.999l145.498-34.74c.64-2.436 1.153-5.256 1.666-7.435z" fill="#f0f7fe"/><path d="m403.845 497.706-5.897 7.307 66.275-15.768c-2.692-1.282-5.384-2.564-7.948-3.974z" fill="#ebf2fe"/><path d="m596.773 451.685-140.626 33.586c2.692 1.41 5.256 2.692 7.948 3.974l130.884-31.279c.512-2.307 1.153-4.487 1.794-6.281z" fill="#f0f7fe"/><path d="m399.999 517.447c2.179 1.666 4.487 3.205 6.794 4.871l88.709-21.152c-3.846-1.154-7.691-2.307-11.409-3.718z" fill="#ebf2fe"/><path d="m589.082 472.324-104.989 25.126c3.846 1.41 7.563 2.564 11.409 3.718l89.606-21.408c1.41-2.565 2.692-5.001 3.974-7.436z" fill="#f0f7fe"/><path d="m554.983 321.698c-.256-.256-.513-.256-.897-.641l-8.332 2.051-6.666 8.076 21.023-4.999c-1.539-1.41-3.334-3.077-5.128-4.487z" fill="#f0f7fe"/><path d="m596.645 385.025-125.884 29.997-7.307 9.23 134.858-32.176c-.513-2.436-1.026-4.487-1.667-7.051z" fill="#f0f7fe"/><path d="m422.048 531.035c2.82 1.41 5.769 2.948 8.717 3.846l107.425-25.638c-5.384-.513-10.896-1.154-16.28-2.051z" fill="#ebf2fe"/><path d="m573.186 497.193c.769-.897 1.538-1.666 2.179-2.82l-53.456 12.691c5.384.897 10.768 1.538 16.28 2.051l31.151-7.435c1.282-1.282 2.564-2.949 3.846-4.487z" fill="#f0f7fe"/><path d="m549.983 317.724-.513.641 1.026-.256c-.128 0-.385-.256-.513-.385z" fill="#f0f7fe"/><path d="m409.229 523.857c2.692 2.051 5.384 3.589 8.076 5.128l96.913-23.203c-4.871-1.026-9.871-2.179-14.742-3.461z" fill="#ebf2fe"/><path d="m583.569 482.194-84.094 19.998c4.871 1.282 9.743 2.436 14.742 3.461l64.48-15.383c1.796-2.435 3.462-4.999 4.872-8.076z" fill="#f0f7fe"/><path d="m422.304 475.016-5.897 7.307 24.613-5.897c-2.179-1.41-4.358-2.82-6.538-4.358z" fill="#ebf2fe"/><g fill="#f0f7fe"><path d="m600.363 432.456-165.88 39.611c2.179 1.538 4.359 2.948 6.538 4.358l158.573-37.817c.256-2.178.64-3.973.769-6.152z"/><path d="m582.159 352.464-74.608 17.819-6.025 6.794 83.453-19.87c-.769-1.538-1.794-3.333-2.82-4.743z"/><path d="m569.597 335.543-42.175 9.999-6.666 8.076 53.328-12.691c-1.411-1.795-2.949-3.589-4.487-5.384z"/><path d="m576.519 344.132-59.353 14.229-5.897 7.307 68.839-16.409c-1.153-1.922-2.307-3.332-3.589-5.127z"/><path d="m586.518 360.028-87.811 21.023-7.435 8.717 98.451-23.459c-.898-2.051-2.051-4.358-3.205-6.281z"/><path d="m563.315 329.005-27.818 6.666-5.897 7.307 38.329-9.102c-1.537-1.794-2.947-3.076-4.614-4.871z"/></g><path d="m425.894 470.401 4.615-1.154c-.769-.513-1.538-1.154-2.307-1.666z" fill="#ebf2fe"/><path d="m601.132 422.072-168.572 40.253-4.358 5.256c.769.513 1.538 1.154 2.307 1.666l170.239-40.637c.127-2.179.255-4.358.384-6.538z" fill="#f0f7fe"/><path d="m520.755 535.394-31.279 7.435c10.641-1.41 21.281-3.461 31.279-7.435z" fill="#ebf2fe"/><path d="m600.363 403.997-149.343 35.637-5.897 7.307 155.753-37.176c-.257-2.05-.257-3.588-.513-5.768z" fill="#f0f7fe"/><path d="m442.046 450.403-7.307 9.23 166.393-39.739c0-2.692 0-4.871-.256-7.435z" fill="#f0f7fe"/><path d="m594.209 377.59-115.373 27.561-5.897 7.307 123.064-29.356c-.512-1.538-1.025-3.589-1.794-5.512z" fill="#f0f7fe"/><path d="m598.824 394.768-138.447 33.073-5.897 7.307 145.241-34.612c-.128-1.666-.512-3.717-.897-5.768z" fill="#f0f7fe"/><path d="m590.62 368.232-101.528 24.228-6.538 8.589 110.501-26.408c-.64-2.051-1.41-3.973-2.435-6.409z" fill="#f0f7fe"/><path d="m663.305 229.785h3.846v8.973h-3.846zm0 76.915h3.846v10.255h-3.846zm-6.41-97.426h5.128v10.255h-5.128zm0 76.915h5.128v10.255h-5.128zm-6.41-96.144h5.128v8.973h-5.128zm0 76.915h5.128v10.255h-5.128zm0 79.479h5.128v10.255h-5.128zm-8.973-176.904h5.128v10.255h-5.128zm0 79.479h5.128v10.255h-5.128zm0 76.915h5.128v10.255h-5.128zm-6.41-96.144h3.846v8.973h-3.846zm0 76.915h3.846v10.255h-3.846zm-6.409-97.426h3.846v10.255h-3.846zm0 76.915h3.846v10.255h-3.846zm0 79.479h3.846v8.973h-3.846zm-7.692-175.623h3.846v8.973h-3.846zm0 76.915h3.846v10.255h-3.846zm0 79.479h3.846v10.255h-3.846zm-8.973-176.904h5.128v10.255h-5.128zm0 79.479h5.128v10.255h-5.128zm0 76.915h5.128v10.255h-5.128zm0 79.478h5.128v8.973h-5.128zm-6.41-253.819h5.128v7.692h-5.128zm0 78.197h5.128v8.973h-5.128zm0 76.915h5.128v10.255h-5.128zm0 79.479h5.128v8.973h-5.128zm-6.409-255.102h3.846v8.973h-3.846zm0 78.197h3.846v10.255h-3.846zm0 76.915h3.846v10.255h-3.846zm0 79.479h3.846v8.973h-3.846zm-7.692-253.819h5.128v8.973h-5.128zm0 78.196h5.128v8.973h-5.128zm0 76.915h5.128v10.255h-5.128zm0 79.479h5.128v10.255h-5.128zm0 79.479h5.128v8.973h-5.128zm-7.691-256.383h5.128v10.255h-5.128zm0 79.479h5.128v10.255h-5.128zm0 76.915h5.128v10.255h-5.128zm0 79.478h5.128v8.973h-5.128zm-6.41-253.819h3.846v7.692h-3.846zm0 78.197h3.846v8.973h-3.846zm0 76.915h3.846v10.255h-3.846zm0 79.479h3.846v8.973h-3.846zm-7.691-255.102h5.128v8.973h-5.128zm0 78.197h5.128v10.255h-5.128zm0 76.915h5.128v10.255h-5.128zm0 79.479h5.128v8.973h-5.128zm-6.41-253.819h5.128v8.973h-5.128zm0 78.196h5.128v8.973h-5.128zm0 76.915h5.128v10.255h-5.128zm0 79.479h5.128v10.255h-5.128zm0 79.479h5.128v8.973h-5.128zm-8.973-334.58h5.128v8.973h-5.128zm0 78.197h5.128v10.255h-5.128zm0 79.479h5.128v10.255h-5.128zm0 76.915h5.128v10.255h-5.128zm0 79.478h5.128v8.973h-5.128zm-6.41-253.819h3.846v7.692h-3.846zm0 78.197h3.846v8.973h-3.846zm0 76.915h3.846v10.255h-3.846zm0 79.479h3.846v8.973h-3.846zm-6.409-255.102h3.846v8.973h-3.846zm0 78.197h3.846v10.255h-3.846zm0 76.915h3.846v10.255h-3.846zm0 79.479h3.846v8.973h-3.846zm0 79.479h3.846v8.973h-3.846zm-7.692-333.298h5.128v8.973h-5.128zm0 78.196h5.128v8.973h-5.128zm0 76.915h5.128v10.255h-5.128zm0 79.479h5.128v10.255h-5.128zm0 79.479h5.128v8.973h-5.128zm-7.691-334.58h3.846v8.973h-3.846zm0 78.197h3.846v10.255h-3.846zm0 79.479h3.846v10.255h-3.846zm0 76.915h3.846v10.255h-3.846zm0 79.478h3.846v8.973h-3.846zm-7.692-333.298h5.128v8.973h-5.128zm0 79.479h5.128v7.692h-5.128zm0 78.197h5.128v8.973h-5.128zm0 76.915h5.128v10.255h-5.128zm0 79.479h5.128v8.973h-5.128zm0 79.479h5.128v8.973h-5.128zm-6.41-334.581h5.128v8.973h-5.128zm0 78.197h5.128v10.255h-5.128zm0 76.915h5.128v10.255h-5.128zm0 79.479h5.128v8.973h-5.128zm0 79.479h5.128v8.973h-5.128zm-6.409-333.298h3.846v8.973h-3.846zm0 78.196h3.846v8.973h-3.846zm0 76.915h3.846v10.255h-3.846zm0 79.479h3.846v10.255h-3.846zm0 79.479h3.846v8.973h-3.846zm-8.974-334.58h5.128v8.973h-5.128zm0 78.197h5.128v10.255h-5.128zm0 79.479h5.128v10.255h-5.128zm0 76.915h5.128v10.255h-5.128zm0 79.478h5.128v8.973h-5.128zm-7.691-333.298h6.41v8.973h-6.41zm0 79.479h6.41v7.692h-6.41zm0 78.197h6.41v8.973h-6.41zm0 76.915h6.41v10.255h-6.41zm0 79.479h6.41v8.973h-6.41zm0 79.479h6.41v8.973h-6.41zm-6.41-334.581h5.128v8.973h-5.128zm0 78.197h5.128v10.255h-5.128zm0 76.915h5.128v10.255h-5.128zm0 79.479h5.128v8.973h-5.128zm0 79.479h5.128v8.973h-5.128zm-6.409-333.298h5.128v8.973h-5.128zm0 78.196h5.128v8.973h-5.128zm0 76.915h5.128v10.255h-5.128zm0 79.479h5.128v10.255h-5.128zm0 79.479h5.128v8.973h-5.128zm-7.692-334.58h3.846v8.973h-3.846zm0 78.197h3.846v10.255h-3.846zm0 79.479h3.846v10.255h-3.846zm0 76.915h3.846v10.255h-3.846zm0 79.478h3.846v8.973h-3.846zm-237.154-166.649h-3.846v-8.973h3.846zm7.691 97.426h-3.846v-10.255h3.846zm0-76.915h-3.846v-10.255h3.846zm7.692 97.426h-3.846v-10.255h3.846zm0-79.479h-3.846v-10.256h3.846zm0-78.197h-3.846v-8.973h3.846zm7.691 175.622h-3.846v-8.973h3.846zm0-78.196h-3.846v-10.255h3.846zm0-76.915h-3.846v-10.255h3.846zm6.41 97.425h-5.128v-10.255h5.128zm0-78.197h-5.128v-8.973h5.128zm6.409 97.426h-3.846v-10.255h3.846zm0-76.915h-3.846v-10.255h3.846zm0-79.479h-3.846v-10.255h3.846zm8.974 176.905h-5.128v-10.255h5.128zm0-79.479h-5.128v-10.256h5.128zm0-78.197h-5.128v-8.973h5.128zm7.691 175.622h-5.128v-8.973h5.128zm0-78.196h-5.128v-10.255h5.128zm0-76.915h-5.128v-10.255h5.128zm0-79.479h-5.128v-8.973h5.128zm6.41 255.101h-5.128v-8.973h5.128zm0-78.197h-5.128v-10.255h5.128zm0-78.197h-5.128v-8.973h5.128zm0-79.479h-5.128v-7.692h5.128zm6.409 255.102h-3.846v-8.973h3.846zm0-78.197h-3.846v-10.255h3.846zm0-76.915h-3.846v-10.255h3.846zm0-79.479h-3.846v-10.255h3.846zm8.974 255.102h-5.128v-8.973h5.128zm0-78.197h-5.128v-10.255h5.128zm0-79.479h-5.128v-10.256h5.128zm0-78.197h-5.128v-8.973h5.128zm0-78.197h-5.128v-8.973h5.128zm6.409 253.819h-5.128v-8.973h5.128zm0-78.196h-5.128v-10.255h5.128zm0-76.915h-5.128v-10.255h5.128zm0-79.479h-5.128v-8.973h5.128zm6.41 255.101h-5.128v-8.973h5.128zm0-78.197h-5.128v-10.255h5.128zm0-78.197h-5.128v-8.973h5.128zm0-79.479h-5.128v-7.692h5.128zm7.691 255.102h-5.128v-8.973h5.128zm0-78.197h-5.128v-10.255h5.128zm0-76.915h-5.128v-10.255h5.128zm0-79.479h-5.128v-10.255h5.128zm0-79.479h-5.128v-8.973h5.128zm7.692 334.581h-3.846v-8.973h3.846zm0-78.197h-3.846v-10.255h3.846zm0-79.479h-3.846v-10.256h3.846zm0-78.197h-3.846v-8.973h3.846zm0-78.197h-3.846v-8.973h3.846zm7.691 333.298h-5.128v-8.973h5.128zm0-79.479h-5.128v-8.973h5.128zm0-78.196h-5.128v-10.255h5.128zm0-76.915h-5.128v-10.255h5.128zm0-79.479h-5.128v-8.973h5.128zm6.41 255.101h-3.846v-8.973h3.846zm0-78.197h-3.846v-10.255h3.846zm0-78.197h-3.846v-8.973h3.846zm0-79.479h-3.846v-7.692h3.846zm6.41 255.102h-3.846v-8.973h3.846zm0-78.197h-3.846v-10.255h3.846zm0-76.915h-3.846v-10.255h3.846zm0-79.479h-3.846v-10.255h3.846zm0-79.479h-3.846v-8.973h3.846zm8.973 334.581h-5.128v-8.973h5.128zm0-78.197h-5.128v-10.255h5.128zm0-79.479h-5.128v-10.256h5.128zm0-78.197h-5.128v-8.973h5.128zm0-78.197h-5.128v-8.973h5.128zm6.41 333.298h-5.128v-8.973h5.128zm0-79.479h-5.128v-8.973h5.128zm0-78.196h-5.128v-10.255h5.128zm0-76.915h-5.128v-10.255h5.128zm0-79.479h-5.128v-8.973h5.128zm6.409 334.58h-3.846v-8.973h3.846zm0-79.479h-3.846v-8.973h3.846zm0-78.197h-3.846v-10.255h3.846zm0-78.197h-3.846v-8.973h3.846zm0-79.479h-3.846v-7.692h3.846zm0-78.196h-3.846v-8.973h3.846zm7.692 333.298h-5.128v-8.973h5.128zm0-78.197h-5.128v-10.255h5.128zm0-76.915h-5.128v-10.255h5.128zm0-79.479h-5.128v-10.255h5.128zm0-79.479h-5.128v-8.973h5.128zm8.973 334.581h-5.128v-8.973h5.128zm0-78.197h-5.128v-10.255h5.128zm0-79.479h-5.128v-10.256h5.128zm0-78.197h-5.128v-8.973h5.128zm0-78.197h-5.128v-8.973h5.128zm6.41 333.298h-5.128v-8.973h5.128zm0-79.479h-5.128v-8.973h5.128zm0-78.196h-5.128v-10.255h5.128zm0-76.915h-5.128v-10.255h5.128zm0-79.479h-5.128v-8.973h5.128zm6.409 334.58h-5.128v-8.973h5.128zm0-79.479h-5.128v-8.973h5.128zm0-78.197h-5.128v-10.255h5.128zm0-78.197h-5.128v-8.973h5.128zm0-79.479h-5.128v-7.692h5.128zm0-78.196h-5.128v-8.973h5.128zm7.692 333.298h-5.128v-8.973h5.128zm0-78.197h-5.128v-10.255h5.128zm0-76.915h-5.128v-10.255h5.128zm0-79.479h-5.128v-10.255h5.128zm0-79.479h-5.128v-8.973h5.128zm7.691 334.581h-3.846v-8.973h3.846zm0-78.197h-3.846v-10.255h3.846zm0-79.479h-3.846v-10.256h3.846zm0-78.197h-3.846v-8.973h3.846zm0-78.197h-3.846v-8.973h3.846zm7.692 333.298h-5.128v-8.973h5.128zm0-79.479h-5.128v-8.973h5.128zm0-78.196h-5.128v-10.255h5.128zm0-76.915h-5.128v-10.255h5.128zm0-79.479h-5.128v-8.973h5.128zm6.409 334.58h-5.128v-8.973h5.128zm0-79.479h-5.128v-8.973h5.128zm0-78.197h-5.128v-10.255h5.128zm0-78.197h-5.128v-8.973h5.128zm0-79.479h-5.128v-7.692h5.128zm0-78.196h-5.128v-8.973h5.128zm6.41 333.298h-5.128v-8.973h5.128zm0-78.197h-5.128v-10.255h5.128zm0-76.915h-5.128v-10.255h5.128zm0-79.479h-5.128v-10.255h5.128zm0-79.479h-5.128v-8.973h5.128zm10.255 334.581h-5.128v-8.973h5.128zm0-78.197h-5.128v-10.255h5.128zm0-79.479h-5.128v-10.256h5.128zm0-78.197h-5.128v-8.973h5.128zm0-78.197h-5.128v-8.973h5.128zm7.692 333.298h-5.128v-8.973h5.128zm0-79.479h-5.128v-8.973h5.128zm0-78.196h-5.128v-10.255h5.128zm0-76.915h-5.128v-10.255h5.128zm0-79.479h-5.128v-8.973h5.128zm0-79.479h-5.128v-8.973h5.128zm6.409 414.059h-5.128v-8.973h5.128zm0-79.479h-5.128v-8.973h5.128zm0-78.197h-5.128v-10.255h5.128zm0-78.197h-5.128v-8.973h5.128zm0-79.479h-5.128v-7.692h5.128zm-5.127-78.196v-8.973h5.128v8.973z" fill="#eee"/><path d="m250.527 132.359h-17.946v80.248l17.946 17.691z" fill="#fff"/><path d="m217.198 132.359h-17.947v47.431l17.947 17.691z" fill="#fff"/><path d="m183.868 132.359h-16.665v14.614l16.665 17.69z" fill="#fff"/><path d="m314.623 132.359h-16.665v145.882l16.665 17.05z" fill="#fff"/><path d="m330.006 310.289 15.383 15.127v-193.057h-15.383z" fill="#fff"/><path d="m282.575 132.359h-17.947v113.065l17.947 17.691z" fill="#fff"/></g><g clip-path="url(#d)" transform="matrix(2.15243902 0 0 2.15656566 691 172)"><path d="m0 0h328v198h-328z" fill="#eee"/><path d="m323.629 34.49h-320.825v-20.215c0-7.073 5.734-12.807 12.807-12.807h308.018z" fill="url(#e)"/><path d="m40.639 38.084h-34.927v-20.313c0-7.019 5.69-12.709 12.709-12.709h22.218z" fill="#78a9ef"/><path d="m14.175 12.573h18v18h-18z" fill="#89b3f4"/><path d="m5.333 52h59.5v14h-59.5z" fill="url(#g)"/><path d="m59.167 52h59.5v14h-59.5z" fill="#f2f2f2"/><path d="m113 52h59.5v14h-59.5z" fill="url(#h)"/><path d="m166.833 52h59.5v14h-59.5z" fill="#f2f2f2"/><path d="m220.667 52h59.5v14h-59.5z" fill="url(#i)"/><path d="m263.5 52h59.5v14h-59.5z" fill="#f2f2f2"/><path d="m296 45.333h-232.667c-3.3 0-6-2.7-6-6v-2.667c0-3.3 2.7-6 6-6h232.667c3.3 0 6 2.7 6 6v2.667c0 3.3-2.7 6-6 6z" fill="#f7f7f7"/><g fill="#23286b"><circle cx="74.459" cy="41.238" r="1.5"/><circle cx="82.458" cy="41.238" r="1.5"/><circle cx="90.457" cy="41.238" r="1.5"/></g></g><g clip-path="url(#j)" transform="matrix(3.29861641 0 0 3.31959094 751 359)"><path d="m42.318 40.586h-1.184c7.877-3.027 13.478-10.644 13.478-19.588 0-11.596-9.401-20.998-20.999-20.998s-20.999 9.402-20.999 20.999c0 8.943 5.601 16.56 13.478 19.588h-2.928c-10.39 0-19.358 6.396-23.164 15.445h65.482c-3.806-9.049-12.774-15.446-23.164-15.446z" fill="#9bbffd"/></g><g clip-path="url(#k)" transform="matrix(1.84 0 0 1.84516129 197 468)"><path d="m19.581 218.902c7.996.841 12.555.725 20.249-1.9-10.298.127-31.061-3.912-30.821-2.026.417 3.295 7.671 3.621 10.572 3.926z" fill="url(#l)"/><path d="m58.752 225.304c-.854-.484-1.711-1.118-2.117-2.106-.485-1.181-.213-2.568.074-3.831 3.377-14.826 7.863-29.321 13.391-43.275-1.477.104-2.955.207-4.431.31-2.7 5.31-5.401 10.619-8.1 15.928-3.967 7.798-6.225 18.178-14.753 23.404-12.468 3.468-24.096 5.331-36.856 6.876-2.023.245-6.649 1.17-5.875 3.321 1.405.804 2.07 1.445 4.04 1.004s14.027-1.698 16.567-1.462c2.056.191 4.109.205 6.16.094-.492.185-.983.369-1.475.564-1.473.589-3.885 1.252-5.444 1.205-1.358-.041-3.398.368-4.742.603s-3.336 2.97-.697 3.042c9.586.261 19.218-.866 28.46-3.787 2.075-.656 4.27-1.397 6.338-.719 1.234.405 4.345 2.061 5.627 2.459 4.73 1.47 4.286 1.943 9.076 3.3 2.312.655 5.211 3.595 5.455.886.398-4.398-5.809-5.048-10.698-7.816z" fill="#ffbeb6"/><path d="m499.892 205.494c1.707-10.813-17.318.488-22.824 9.949-4.157 7.142-6.603 15.128-9.007 23.035-.466 1.533-.934 3.075-1.106 4.668-.18 1.657-1.382 4.501-1.298 6.167.469 9.319.337 17.56-2.965 26.287 8.779.469 18.048 2.035 26.776 3.095 1.507-7.882 8.981-64.062 10.424-73.201z" fill="#1d72d8"/><path d="m237.222 275.17h-142.235v34.768h94.191z" fill="#eee"/><path d="m238.685 243.84c-8.595-7.306-15.767-16.896-17.827-27.987s1.915-23.697 11.418-29.774c4.772 5.945 14.339 5.527 20.878 1.609s11.063-10.369 16.313-15.897c13.95-14.688 33.18-22.951 51.843-30.829 3.995-1.686 8.722-3.341 12.464-1.15 1.762 1.032 2.977 2.766 4.135 4.448 4.377 6.354 8.949 13.367 8.424 21.064-.225 3.303-1.393 6.464-2.7 9.506-12.09 28.121-36.254 48.925-59.63 68.688-4.89 4.134-10.011 8.391-16.217 9.972-10.296 2.626-21.003-2.767-29.101-9.65z" fill="#151a4f"/><path d="m250.716 218.982c14.834 3.031 29.667 6.064 44.501 9.095 8.349 1.706 16.859 3.422 25.333 2.523 6.798-.721 13.466-3.117 20.286-2.65 5.589.382 10.842 2.66 16.181 4.361 14.469 4.608 29.889 5.024 45.07 5.401 19.833.493 45.969.987 65.804 1.479 2.444 12.14-1.414 24.279 1.03 36.419-13.688 4.836-28.638 4.022-43.129 3.148-33.423-2.017-66.846-4.033-100.269-6.051-28.906-1.743-58.18-3.556-85.718-12.513s-53.608-26.005-67.33-51.506c17.788-12.472 37.302-22.478 57.811-29.644 8.745 6.462 13.444 17.985 11.715 28.72-.304 1.888-.786 3.848-.224 5.675 1.086 3.529 5.324 4.804 8.939 5.543z" fill="url(#n)"/><path d="m141.285 74.322c-.482-.533-1.249-.676-1.959-.788-3.166-.5-6.331-1.001-9.497-1.501-3.023-.478-6.379-.888-8.915.824-1.592 1.075-2.579 2.819-3.51 4.499-16.99 30.677-27.036 59.088-32.461 68.886-9.501 17.156-19.848 25.564-29.348 42.719-3.808 6.877-7.616 13.752-11.424 20.629 12.043 4.152 24.087 8.304 36.13 12.456 4.49-19.01 5.511-26.169 10.002-45.178 1.344-5.691 21.307-42.574 23.966-45.473 6.317-6.888 18.138-23.962 22.635-32.155 3.72-6.78 4.334-14.771 4.868-22.486.057-.852.083-1.802-.487-2.432z" fill="url(#p)"/><path d="m163.994 72.403c1.096 5.719.753 11.708-.989 17.263l20.916-.672c-2.778-4.567-2.588-10.275-2.325-15.614.023-.461.033-.965-.251-1.328-.441-.565-1.304-.477-2.009-.348-5.051.933-10.229 1.168-15.342.699z" fill="#f2a19c"/><path d="m207.438 137.527c1.047 7.964 2.805 16.11 7.464 22.652 7.865 11.047 22.537 15.593 30.567 26.52-19.129 19.578-43.754 32.679-67.956 45.467-7.585-11.904-15.168-23.81-22.754-35.714-2.675-4.199-5.354-8.405-7.631-12.832-3.3-6.418-5.729-13.249-7.811-20.158-8.693-28.831-10.743-59.982-2.73-89.009.576-2.088 10.423.552 16.838 1.654 1.91.327 9.059 2.18 10.621 3.326 1.609 1.18 1.609 1.824 3.862 3.219 5.707 3.533 9.102 1.855 13.947-2.789.813-.78 2.039-2.146 3.755-3.004 1.517-.758 4.721-1.074 6.651-.859 6.856.762 12.162.799 17.912 4.611-4.293 18.605-5.224 37.983-2.735 56.916z" fill="url(#q)"/><path d="m460.448 288.258c6.744-.35-10.209-16.961-20.363-21.051-7.665-3.087-15.919-4.362-24.09-5.605-1.583-.241-3.178-.482-4.778-.424-1.666.061-4.653-.721-6.29-.4-9.155 1.802-17.33 2.857-26.44.841.797 8.755.577 18.153.783 26.942 8.015.361 75.718-.018 81.178-.303z" fill="url(#r)"/><path d="m188.636 63.1c1.091-6.434 1.104-13.82-3.391-18.549-4.518-4.752-11.896-5.089-18.439-4.66-1.426.094-2.869.212-4.221.677-1.499.516-2.83 1.443-3.997 2.517-4.539 4.178-6.636 10.691-5.919 16.818.717 6.128 4.08 11.801 8.764 15.815 4.762 4.08 11.65 6.519 17.372 3.956 6.114-2.739 8.711-9.97 9.831-16.574z" fill="#ffbeb6"/><path d="m182.869 69.187c-2.165 0-4.2-.713-5.725-2.034-.179-.155-.197-.425-.044-.603.155-.179.426-.197.603-.044 1.65 1.428 3.978 2.064 6.384 1.743 2.407-.32 4.486-1.543 5.704-3.354.132-.196.397-.25.594-.116.196.132.248.397.116.594-1.355 2.014-3.651 3.371-6.301 3.725-.446.059-.892.089-1.331.089z" fill="#23286b"/><path d="m159.457 69.064c-.102 0-.202-.001-.304-.004-2.704-.076-5.221-1.163-6.905-2.982-.161-.174-.15-.444.023-.605.173-.162.444-.15.605.023 1.529 1.651 3.826 2.638 6.302 2.708 2.475.073 4.825-.786 6.444-2.347.171-.164.441-.159.605.011.165.17.159.441-.011.605-1.718 1.656-4.167 2.591-6.759 2.591z" fill="#23286b"/><g fill="#e94a47"><path d="m159.187 33.415c-3.399 3.213-6.495 6.096-7.798 10.999-2.605 9.808 2.108 18.422 2.108 18.422s2.092-4.945 3.251-6.015c2.113-1.951 3.667-1.384 4.065-1.587.91-.464 1.883.339 2.706 1.008 4.404 3.587 10.27 4.203 15.093 1.581 2.226-1.21 4.556-3.104 6.88-2.224 1.726.653 2.955 2.196 3.606 5.284.714-.556 1.765-3.611 1.71-4.658-.466-8.714-2.978-17.243-7.146-24.263-1.026-1.727-2.168-3.386-3.611-4.563-3.018-2.463-4.275-2.724-7.695-1.303-3.424 1.424-10.296 4.602-13.169 7.319z"/><path d="m192.646 5.593c5.386-2.901 11.893-4.741 17.594-2.525 3.388 1.317 6.094 3.912 8.704 6.442 1.565 1.518 3.203 3.164 3.672 5.293.293 1.329.095 2.709.062 4.07-.078 3.367-.346 5.406 1.533 8.203.711.784 3.039 2.783 4.356 3.354-4.896 2.205-10.587 1.868-15.793.559-5.207-1.309-10.141-3.528-15.294-5.035-6.665-1.95-13.615-2.689-20.521-3.419 2.584-7.443 8.752-13.207 15.687-16.942z"/><path d="m176.713 25.84c-.004 0-.008 0-.013 0-.236-.007-.423-.203-.416-.439.214-7.553 3.857-14.892 9.743-19.631 5.886-4.738 13.831-6.732 21.257-5.33.232.044.385.267.341.499s-.267.384-.499.341c-7.183-1.354-14.869.572-20.561 5.156-5.693 4.584-9.216 11.682-9.425 18.989-.007.231-.196.415-.427.415z"/></g><path d="m173.899 18.682h8.537v8.537h-8.537z" fill="#23286b"/><path d="m322.865 173.155c-1.361-3.717-4.094-6.784-5.649-10.423-2.455-5.747-1.612-12.773 2.133-17.776 4.124-5.509 12.881-8.018 18.036-3.458 2.519 2.228 3.677 5.57 4.89 8.707 3.995 10.329 9.608 19.942 15.195 29.505 17.99 30.793 36.929 61.143 65.459 82.543-12.507 1.443-28.697 3.936-39.924 4.329-6.203.218-6.168 1.342-12.171-.234-6.004-1.576-11.768-5.218-14.409-10.835-4.141-8.807.126-20.274-5.283-28.362-2.669-3.989-7.163-6.268-11.263-8.766-7.67-4.674-14.969-11.393-16.514-20.242-1.442-8.265 2.387-17.108-.5-24.988z" fill="url(#s)"/><path d="m138.004 185.499-.843-.126c2.379-33.087 1.608-67.728.864-101.228-.079-3.556-.159-7.098-.233-10.623-.005-.236.182-.432.418-.437h.009c.232 0 .423.186.428.418.074 3.525.154 7.067.232 10.623.713 32.063 1.449 65.17-.572 96.979 3.445-11.19 10.075-22.288 16.511-33.059 3.859-6.457 7.503-12.558 10.46-18.611 4.212-8.624 7.481-17.888 10.643-26.846 3.17-8.98 6.447-18.268 10.681-26.935.104-.212.361-.3.571-.196.212.104.3.359.196.571-4.212 8.624-7.481 17.888-10.643 26.846-3.17 8.98-6.447 18.268-10.681 26.935-2.971 6.085-6.626 12.2-10.494 18.674-7.205 12.062-14.658 24.535-17.547 37.015z" fill="#eee"/><path d="m130.399 183.443h22.313v42.395h-22.313z" fill="#eee" transform="matrix(.9428 .3333 -.3333 .9428 76.3023 -35.4799)"/><path d="m203.58 276.932c1.215-7.008.206-5.983 1.764-12.514.986 1.175 2.32 2.244 4.237 1.323.945-1.572 1.393-3.438 1.268-5.267 1.592.675 3.386 1.862 5.063-.024 2.264-2.55 5.248-4.436 4.744-7.809-.503-3.372-2.561-6.27-4.026-9.349-4.523-9.502-3.362-20.565-3.58-31.086-.219-10.521-2.735-22.317-11.628-27.944.306 15.033.613 30.066.919 45.099.093 4.529.181 9.102-.72 13.542-.531 2.618-1.399 5.158-1.923 7.777-.666 3.329-.768 6.743-.866 10.136-.285 9.765-.536 18.111-.821 27.876.206 3.094 3.094 3.714 3.805.939.358-1.399 1.517-11.278 1.764-12.699z" fill="#ffbeb6"/><path d="m192.261 93.601c3.574-5.376 7.15-10.751 10.725-16.128 5.606 1.208 9.912 3.519 11.817 9.156 1.904 5.637 1.73 15.24 1.363 21.181-.77 12.443-3.095 24.753-3.802 37.2-.602 10.606-.024 21.24.552 31.848.214 3.95.431 7.91 1.096 11.81.745 4.373 2.047 8.632 3.445 12.841 3.892 11.714 8.562 23.168 13.967 34.261-12.224 1.252-24.448 2.504-36.672 3.756.796-13.26 1.592-26.52 2.388-39.779 1.706-28.424 3.216-58.056-7.96-84.231-.987-2.313-2.083-4.632-2.374-7.13-.62-5.338 2.482-10.316 5.455-14.785z" fill="url(#t)"/><path d="m136.167 179.648h4.455v4.455h-4.455z" fill="#23286b"/><path d="m152.993 87.329-.633-.573c2.029-2.241 1.953-5.634 1.569-8.968-.375-3.257-.801-6.948 1.142-9.768.388-.564.86-1.07 1.317-1.56.779-.836 1.513-1.624 1.805-2.628.157-.536.175-1.108.196-1.713.008-.235.016-.47.032-.703.196-2.877 1.676-5.646 3.961-7.407l.521.677c-2.093 1.613-3.449 4.151-3.628 6.788-.015.224-.023.448-.03.673-.021.631-.043 1.284-.229 1.924-.349 1.199-1.188 2.1-2.001 2.971-.435.468-.886.95-1.239 1.463-1.76 2.556-1.354 6.078-.996 9.186.405 3.532.471 7.146-1.787 9.638z" fill="#e94a47"/><g fill="#fff"><path d="m208.942 277.926h4.86v4.86h-4.86z" transform="matrix(-.8906 -.4548 .4548 -.8906 272.1139 626.1717)"/><path d="m187.075 279.165h4.86v4.86h-4.86z" transform="matrix(-.8906 -.4548 .4548 -.8906 230.2087 618.569)"/><path d="m193.555 292.197h6.116v6.116h-6.116z" transform="matrix(-.8327 .5538 -.5538 -.8327 523.8317 432.2237)"/></g><path d="m89.544 239.137h99.881v70.801h-99.881z" fill="#d6d7d8"/><path d="m132.42 268.267h9.695v9.695h-9.695z" fill="#a1c3fc" transform="matrix(-.8906 -.4548 .4548 -.8906 135.3059 578.7788)"/><path d="m136.784 81.547c-.168.054-.269.198-.216.366.054.168.198.269.366.216.168-.054.269-.198.216-.366-.054-.168-.198-.27-.366-.216zm-26.653 12.681c-.143-.102-.311-.048-.413.097-.102.143-.048.311.097.413.143.102.311.048.413-.097.179-.132.047-.311-.097-.413zm6.633 3.563c-.143-.102-.311-.048-.413.097-.102.144-.048.311.097.413.143.102.311.048.413-.097.089-.065.046-.311-.097-.413zm6.047-13.51c-.102.143-.126.3-.071.468.143.102.3.126.468.071.102-.143.126-.3.059-.39-.12-.257-.276-.281-.456-.149zm4.761 5.909c-.102.143-.126.3-.071.468.143.102.3.126.468.071.102-.143.126-.3.059-.39-.121-.258-.354-.293-.456-.149zm-18.555 19.178c-.156-.024-.335.109-.359.264-.024.156.109.335.264.359.156.024.335-.109.359-.264.024-.156-.107-.335-.264-.359zm7.529.829c-.156-.024-.335.109-.359.264-.024.156.109.335.264.359.156.024.335-.109.359-.264.024-.154-.108-.334-.264-.359zm12.127-30.365c-.089.066-.203.289-.059.39.066.089.289.203.39.059.089-.066.203-.289.059-.39-.055-.166-.21-.191-.39-.059zm3.771 5.599c-.089.066-.203.289-.059.39.066.089.21.191.39.059.089-.066.191-.21.059-.39-.145-.101-.3-.124-.39-.059zm-19.377 17.777c-.156-.024-.323.031-.348.186s.042.245.186.348c.156.024.323-.03.348-.186.024-.156-.03-.324-.186-.348zm6.577 1.322c-.156-.024-.323.031-.348.186s.042.245.186.348c.156.024.323-.03.348-.186.024-.156-.031-.324-.186-.348zm2.164-13.146c-.143-.102-.311-.048-.413.097-.102.143-.048.311.097.413.144.102.311.048.413-.097.101-.144.046-.312-.097-.413zm.485-14.678c-.143-.102-.311-.048-.413.097-.102.144-.048.311.097.413.143.102.311.048.413-.097.1-.143.046-.311-.097-.413zm6.436 4.331c-.143-.102-.311-.048-.413.097-.102.143-.048.311.097.413.143.102.311.048.413-.097.1-.144.046-.311-.097-.413zm6.526 4.265c-.143-.102-.311-.048-.413.097-.102.143-.048.311.097.413.143.102.311.048.413-.097.023-.155-.031-.323-.097-.413zm-19.52 23.416c-.168.054-.269.198-.216.366.054.168.198.269.366.216.168-.054.269-.198.216-.366.024-.156-.198-.27-.366-.216zm29.319-28.061c-.132-.18-.289-.203-.468-.071m-25.061 11.647c-.156-.024-.335.109-.359.264-.024.156.109.335.264.359.156.024.335-.109.359-.264.025-.157-.108-.336-.264-.359zm-.306-5.31c-.156-.024-.335.109-.359.264-.024.156.109.335.264.359.156.024.323-.03.359-.264.025-.156-.109-.336-.264-.359zm7.542 1.788c-.156-.024-.335.109-.359.264-.024.156.03.323.264.359.156.024.335-.109.437-.252-.055-.168-.186-.347-.342-.371zm9.348-10.057c-.143-.102-.311-.048-.413.097-.102.143-.048.311.084.492.143.102.311.048.492-.084.035-.235-.018-.404-.163-.505zm.898 3.007c-.156-.024-.245.042-.335.109-.024.156.042.245.109.335.156.024.245-.042.335-.109.022-.155-.032-.323-.109-.335z" fill="#fff"/></g><g clip-path="url(#u)" transform="matrix(0 4.14473684 -3.94150418 0 1322 368)"><path d="m0 0h15.2v71.8h-15.2z" fill="#d6d7d8"/></g><g clip-path="url(#v)" transform="matrix(0 3.48684211 -3.30083565 0 1277 456)"><path d="m0 0h15.2v71.8h-15.2z" fill="#d6d7d8"/></g></svg>