<svg height="325" viewBox="0 0 390 325" width="390" xmlns="http://www.w3.org/2000/svg"><g fill="none" fill-rule="nonzero"><path d="m185 155c-25.5-72.75-114.75-150-150-150-17.25 0-30 8.25-30 30 0 132.75 17.5 155 115 155-61.46 0-80 45-80 55 0 40 50 75 65 75 25 0 67-23 85-80z" fill="#4299e1"/><path d="m200 240c18 57 60 80 85 80 15 0 65-35 65-75 0-10-18.54-55-80-55 97.5 0 115-22.25 115-155 0-21.75-12.75-30-30-30-35.25 0-124.5 77.25-150 150z" fill="#4299e1"/><g fill="#f6e05e"><path d="m195.29 162.505c-.095 0-.195 0-.29 0s-.19 0-.29 0c-10.18 0-18.135 9.105-17.125 19.6l9.455 97.93c.41 4.24 3.85 7.465 7.96 7.465s7.55-3.225 7.96-7.465l9.455-97.93c1.01-10.49-6.945-19.6-17.125-19.6z"/><path d="m195 127.5c-9.664983 0-17.5 7.835017-17.5 17.5s7.835017 17.5 17.5 17.5 17.5-7.835017 17.5-17.5-7.835017-17.5-17.5-17.5z"/><path d="m195 102.5c-6.903559 0-12.5 5.596441-12.5 12.5s5.596441 12.5 12.5 12.5 12.5-5.596441 12.5-12.5-5.596441-12.5-12.5-12.5z"/><path d="m292.5 237.5c-8.284271 0-15 6.715729-15 15s6.715729 15 15 15 15-6.715729 15-15-6.715729-15-15-15z"/><path d="m97.5 237.5c-8.2842712 0-15 6.715729-15 15s6.7157288 15 15 15c8.284271 0 15-6.715729 15-15s-6.715729-15-15-15z"/></g><path d="m365.52 95.01c-1.265-.06-2.595.88-2.725 2.255-2.465 26.045-7.155 42.9-14.75 53.035-10.745 14.365-31.9 19.7-78.045 19.7-1.38 0-2.5 1.12-2.5 2.5s1.12 2.5 2.5 2.5c47.975 0 70.21-5.885 82.05-21.7 8.17-10.905 13.17-28.56 15.73-55.565.125-1.375-.88-2.595-2.26-2.725zm1.26-20.005c-1.34-.14-2.555 1-2.61 2.38-.16 3.405-.35 6.72-.57 9.945-.095 1.38.945 2.575 2.325 2.665.055.005.115.005.175.005 1.305 0 2.4-1.01 2.49-2.33.22-3.265.41-6.61.57-10.055.07-1.375-.995-2.545-2.38-2.61zm-11.78-55.005c-16.155 0-58.795 29.11-94.14 70.885-.895 1.055-.76 2.63.295 3.525.465.395 1.04.59 1.615.59.71 0 1.415-.305 1.91-.885 35.695-42.19 77.335-69.115 90.32-69.115 8.6 0 10 1.4 10 10 0 12.4-.145 23.01-.445 32.42-.045 1.375 1.04 2.535 2.42 2.58 1.38.015 2.535-1.045 2.58-2.42.3-9.47.445-20.125.445-32.58 0-11.355-3.645-15-15-15zm-102.31 80.965c-2.57 3.305-5.07 6.675-7.48 10.095-.79 1.13-.52 2.69.605 3.485.44.31.945.455 1.44.455.78 0 1.56-.37 2.045-1.06 2.365-3.36 4.815-6.66 7.335-9.905.85-1.09.65-2.66-.44-3.505-1.085-.85-2.655-.66-3.505.435zm-10.8 19.43c-1.16-.74-2.71-.415-3.45.755-1.055 1.645-2.075 3.305-3.08 4.97-.71 1.18-.325 2.72.855 3.435.4.24.85.355 1.29.355.845 0 1.67-.43 2.145-1.21.975-1.625 1.98-3.245 3.005-4.855.74-1.16.395-2.705-.765-3.45zm88.1 125.475c-.8 27.28-37.27 52.46-45.97 54.18-1.355.265-2.235 1.58-1.97 2.935.235 1.19 1.28 2.015 2.445 2.015.16 0 .325-.015.49-.05 11.875-2.34 49.495-30.3 50.015-59.355.005-.235-.025-.465-.085-.69-.33-1.24-2.27-7.805-7.92-15.315-.825-1.11-2.395-1.335-3.495-.5-1.11.825-1.33 2.395-.5 3.495 4.71 6.27 6.55 11.805 6.99 13.285zm-14.14-20.975c.475.415 1.065.62 1.65.62.695 0 1.385-.29 1.88-.85.91-1.04.805-2.615-.23-3.53-1.645-1.44-3.405-2.81-5.235-4.07-1.125-.775-2.685-.51-3.475.645-.78 1.135-.495 2.69.645 3.475 1.665 1.145 3.27 2.395 4.765 3.71zm-19.15-10.86c1.68.565 3.28 1.19 4.805 1.855.325.14.665.205.995.205.965 0 1.885-.56 2.295-1.505.545-1.27-.035-2.74-1.3-3.29-1.65-.715-3.38-1.385-5.195-2-1.3-.425-2.73.27-3.17 1.565-.445 1.31.26 2.725 1.57 3.17z" fill="#1f212b"/><path d="m390 35c0-22.24-12.76-35-35-35-34.465 0-111.785 65.155-145.32 131.52-1.67-1.82-3.67-3.305-5.91-4.41 3.76-2.725 6.23-7.12 6.23-12.11 0-5.47-2.975-10.22-7.36-12.84l12.3-54.11c.31-1.345-.535-2.685-1.885-2.99-1.355-.31-2.685.535-2.99 1.885l-12.125 53.35c-.955-.19-1.935-.295-2.94-.295s-1.985.105-2.935.295l-12.125-53.35c-.305-1.35-1.665-2.21-2.995-1.885-1.345.305-2.19 1.645-1.885 2.99l12.3 54.11c-4.385 2.625-7.36 7.37-7.36 12.84 0 4.99 2.475 9.385 6.23 12.115-2.24 1.105-4.235 2.59-5.91 4.41-33.595-66.525-110.615-131.525-145.32-131.525-22.245 0-35 12.76-35 35 0 113.93 13.665 149.63 79.095 157.9-32.315 14.02-44.095 42.64-44.095 52.1 0 43.1 53.36 80 70 80 34.885 0 63.185-30.125 78.365-57.05l1.19 12.33c.53 5.54 5.025 9.72 10.445 9.72s9.91-4.18 10.45-9.72l1.19-12.33c15.22 27 43.465 57.05 78.36 57.05 16.64 0 70-36.9 70-80 0-9.46-11.78-38.08-44.09-52.1 65.425-8.27 79.09-43.97 79.09-157.9zm-205 80c0-5.515 4.485-10 10-10s10 4.485 10 10-4.485 10-10 10-10-4.485-10-10zm10 15c8.27 0 15 6.73 15 15s-6.73 15-15 15-15-6.73-15-15 6.73-15 15-15zm-90 185c-11.395 0-60-32.295-60-70 0-6.23 14.895-50 75-50 2.76 0 5-2.235 5-5s-2.24-5-5-5c-94.58 0-110-21.03-110-150 0-16.82 8.18-25 25-25 30.03 0 109 64.71 140.04 133.6.03.065.055.125.08.185-.02.41-.12.8-.12 1.215 0 7.56 4.265 14.075 10.47 17.475-1.875 1.035-3.635 2.305-5.14 3.96-3.885 4.275-5.795 10.08-5.23 15.915l6.425 66.545c-19.325 48.495-56.34 66.105-76.525 66.105zm95.47-35.2c-.285 2.965-2.64 5.2-5.47 5.2s-5.185-2.235-5.47-5.2l-9.455-97.93c-.425-4.44 1.015-8.84 3.955-12.075 2.805-3.09 6.6-4.79 10.97-4.79h.29c4.085 0 7.875 1.705 10.685 4.795 2.94 3.235 4.38 7.635 3.95 12.07zm69.53-94.8c-2.765 0-5 2.235-5 5s2.235 5 5 5c60.105 0 75 43.77 75 50 0 37.705-48.61 70-60 70-20.225 0-57.205-17.64-76.52-66.13l6.42-66.52c.56-5.83-1.345-11.63-5.23-15.915-1.505-1.655-3.27-2.925-5.145-3.96 6.21-3.4 10.475-9.915 10.475-17.475 0-.405-.095-.78-.12-1.18.18-.405.35-.815.535-1.22 31.31-68.375 109.915-132.6 139.585-132.6 16.82 0 25 8.18 25 25 0 128.97-15.42 150-110 150z" fill="#1f212b"/><path d="m120 170c-46.15 0-67.3-5.335-78.05-19.695-7.6-10.14-12.285-26.995-14.75-53.035-.13-1.37-1.385-2.36-2.72-2.255-1.375.13-2.385 1.355-2.255 2.725 2.55 27 7.55 44.66 15.725 55.565 11.84 15.81 34.075 21.695 82.05 21.695 1.38 0 2.5-1.12 2.5-2.5s-1.12-2.5-2.5-2.5zm-95.925-80.005c1.375-.095 2.42-1.285 2.325-2.665-.22-3.23-.41-6.545-.57-9.945-.065-1.375-1.25-2.5-2.615-2.38-1.38.065-2.445 1.235-2.38 2.61.16 3.44.355 6.785.575 10.055.09 1.32 1.19 2.33 2.495 2.33.055 0 .115 0 .17-.005zm10.925-69.995c-11.355 0-15 3.645-15 15 0 12.385.145 23.035.445 32.58.04 1.38 1.25 2.43 2.575 2.42 1.38-.045 2.465-1.195 2.42-2.58-.295-9.485-.44-20.09-.44-32.42 0-8.6 1.4-10 10-10 12.985 0 54.625 26.925 90.32 69.115.5.58 1.205.885 1.915.885.57 0 1.145-.195 1.61-.59 1.055-.895 1.185-2.47.295-3.525-35.345-41.775-77.985-70.885-94.14-70.885zm102.31 80.965c-.845-1.09-2.41-1.285-3.51-.445-1.09.85-1.29 2.415-.44 3.51 2.515 3.245 4.97 6.555 7.34 9.905.49.7 1.265 1.065 2.05 1.065.5 0 1-.145 1.44-.46 1.13-.795 1.395-2.355.6-3.48-2.415-3.425-4.91-6.79-7.48-10.095zm14.26 20.19c-.745-1.16-2.285-1.51-3.45-.765-1.165.74-1.51 2.285-.765 3.45 1.025 1.605 2.03 3.23 3.005 4.86.47.78 1.295 1.21 2.145 1.21.435 0 .88-.115 1.285-.355 1.185-.715 1.565-2.245.855-3.435-1-1.655-2.03-3.315-3.075-4.965zm-45.585 178.895c-8.7-1.72-45.175-26.9-45.975-54.18.44-1.485 2.285-7.01 6.99-13.28.83-1.105.605-2.67-.5-3.495-1.105-.84-2.675-.605-3.5.5-5.64 7.515-7.58 14.075-7.915 15.315-.06.225-.09.455-.085.69.52 29.06 38.14 57.015 50.015 59.355.165.035.325.05.485.05 1.17 0 2.215-.825 2.45-2.015.27-1.36-.61-2.68-1.965-2.94zm-33.485-74.535c.585 0 1.175-.205 1.65-.62 1.485-1.31 3.09-2.56 4.77-3.715 1.135-.78 1.42-2.34.635-3.475-.785-1.14-2.34-1.435-3.48-.635-1.835 1.265-3.595 2.635-5.23 4.065-1.04.915-1.14 2.49-.23 3.53.5.56 1.19.85 1.885.85zm15-9.42c.33 0 .67-.07.995-.205 1.525-.665 3.125-1.29 4.8-1.855 1.31-.44 2.01-1.86 1.57-3.17-.445-1.305-1.87-2.015-3.165-1.565-1.82.615-3.55 1.29-5.2 2-1.265.55-1.85 2.025-1.295 3.29.41.94 1.33 1.505 2.295 1.505zm205 53.905c9.65 0 17.5-7.85 17.5-17.5s-7.85-17.5-17.5-17.5-17.5 7.85-17.5 17.5 7.85 17.5 17.5 17.5zm0-30c6.895 0 12.5 5.605 12.5 12.5s-5.605 12.5-12.5 12.5-12.5-5.605-12.5-12.5 5.605-12.5 12.5-12.5z" fill="#1f212b"/><path d="m97.5 235c-9.65 0-17.5 7.85-17.5 17.5s7.85 17.5 17.5 17.5 17.5-7.85 17.5-17.5-7.85-17.5-17.5-17.5zm0 30c-6.89 0-12.5-5.605-12.5-12.5s5.61-12.5 12.5-12.5 12.5 5.605 12.5 12.5-5.61 12.5-12.5 12.5z" fill="#1f212b"/></g></svg>