<svg width="100" height="80" viewBox="0 0 100 80" fill="none"
    xmlns="http://www.w3.org/2000/svg">
    <mask id="mask0" mask-type="alpha" maskUnits="userSpaceOnUse" x="0" y="0" width="100" height="80">
        <path d="M50.2926 59.7016C32.45 89.7858 19.6271 79.9087 15.3099 71.1626C1.71393 43.6168 30.7793 40.2189 30.7793 40.2189C1.77332 49.1963 1.29151 30.7704 0.367105 22.073C-1.97583 0.0458681 7.46762 -0.796599 12.4964 0.297879C34.7391 5.13842 50.2926 37.3531 50.2926 37.3531H49.7066C49.7066 37.3531 65.2612 5.13842 87.5028 0.297879C92.5327 -0.796599 101.975 0.0446513 99.6332 22.073C98.7088 30.7704 98.227 49.1963 69.2198 40.2189C69.2198 40.2189 98.2852 43.6168 84.6904 71.1626C80.3731 79.9099 67.5503 89.7858 49.7066 59.7016" fill="black"/>
    </mask>
    <g mask="url(#mask0)">
        <rect width="50" height="80" fill="#3182CE"/>
    </g>
    <mask id="mask1" mask-type="alpha" maskUnits="userSpaceOnUse" x="0" y="0" width="100" height="80">
        <path d="M50.2926 59.7016C32.45 89.7858 19.6271 79.9087 15.3099 71.1626C1.71393 43.6168 30.7793 40.2189 30.7793 40.2189C1.77332 49.1963 1.29151 30.7704 0.367105 22.073C-1.97583 0.0458681 7.46762 -0.796599 12.4964 0.297879C34.7391 5.13842 50.2926 37.3531 50.2926 37.3531H49.7066C49.7066 37.3531 65.2612 5.13842 87.5028 0.297879C92.5327 -0.796599 101.975 0.0446513 99.6332 22.073C98.7088 30.7704 98.227 49.1963 69.2198 40.2189C69.2198 40.2189 98.2852 43.6168 84.6904 71.1626C80.3731 79.9099 67.5503 89.7858 49.7066 59.7016" fill="black"/>
    </mask>
    <g mask="url(#mask1)">
        <rect x="50" width="50" height="80" fill="#4299E1"/>
    </g>
</svg>
